# Blender 4.5.1 LTS
# www.blender.org
mtllib Tree03.mtl
o Icosphere.002
v -1.657088 -2.275480 -1.334755
v -1.730083 -1.847508 -2.619462
v -0.272913 -1.978863 -2.766090
v 0.956096 -1.232397 -1.003916
v -0.191080 -1.683156 -0.641467
v -1.767362 -0.773425 -2.463652
v -1.024330 -1.600809 -2.599036
v 0.899215 -0.628422 -1.608502
v 0.132327 -0.253595 -1.297956
v -1.512683 -0.664038 -0.595950
v -1.053901 0.014925 -1.768787
v -0.797919 -0.784487 -2.388283
v -0.366707 -0.372315 -1.870049
v -1.997572 -1.581031 -1.311973
v -1.445886 -1.051407 -1.024546
v -0.844834 -2.316098 -0.744592
v -0.405669 -2.546298 -1.011796
v 1.577997 -0.519054 1.939942
v -0.952607 -0.836585 1.773140
v -2.517354 -1.034760 0.000000
v 0.347562 -0.723411 -1.362258
v 2.036568 -1.034760 -1.216404
v -0.098097 1.734022 1.611705
v -2.108218 0.473675 0.111154
v -0.593807 0.814425 -1.982989
v 0.436100 1.538210 -1.196310
v 2.517354 1.034761 0.000000
v 0.000000 2.313787 0.000000
v -2.045057 1.189309 -0.082161
v -0.955791 1.856145 -0.913932
v 1.126324 -0.043271 1.959745
v 1.373458 1.295930 1.392208
v 1.842638 -0.816668 0.118413
v -0.218398 -1.992416 0.465456
v -0.082428 -2.188497 -0.578455
v 0.544073 -2.213235 -0.385289
v 0.440156 -2.107128 0.294422
v 0.603959 -2.063171 -0.078971
v -0.547843 -2.155027 -0.114986
v 0.049342 -2.496244 -0.055836
v 1.795911 -2.484996 1.655163
v 0.781029 -2.001575 2.138541
v 0.127816 -2.302832 1.203531
v 1.235078 -1.749943 0.102218
v 1.976490 -2.312003 0.520981
v 1.112904 -1.630836 2.411614
v 0.378098 -1.614657 1.459445
v 0.991786 -1.214761 0.469422
v 1.461329 -1.022156 0.926037
v 2.362879 -1.993462 1.397789
v 1.338754 -0.804432 1.618300
v 0.690006 -1.272353 1.452384
v 1.070426 -1.083167 1.242500
v 1.866547 -1.865135 1.950807
v 1.950497 -1.403134 1.780924
v 0.626182 -2.693388 0.381647
v 0.074398 -2.918144 -0.339732
v 0.021137 -1.563036 -0.404420
v 0.336341 -2.842974 -0.193348
v 0.292769 -1.601059 -0.339499
v 0.329237 -2.763971 0.105651
v 0.371087 -1.625914 -0.069882
v 0.060190 -2.760139 0.258268
v 0.177771 -1.612746 0.134815
v -0.201753 -2.835310 0.111885
v -0.093862 -1.574723 0.069894
v -0.194649 -2.914312 -0.187115
v -0.172179 -1.549868 -0.199724
v 0.190992 -3.732766 -0.109125
v 0.458928 -3.739282 0.045342
v 0.459041 -3.746155 0.354608
v 0.191217 -3.746512 0.509407
v -0.076720 -3.739996 0.354940
v -0.076832 -3.733123 0.045674
v -0.018771 -5.764366 -0.521926
v 0.517954 -5.777418 -0.212501
v 0.518180 -5.791186 0.407015
v -0.018320 -5.791902 0.717105
v -0.555046 -5.778849 0.407680
v -0.555272 -5.765080 -0.211835
v 0.576351 -3.071316 0.371802
v 0.708127 -2.587282 0.479178
v 0.528589 -3.019646 0.359292
v 0.666010 -2.573472 0.468653
v 0.528055 -2.985977 0.296255
v 0.654437 -2.566823 0.425097
v 0.575282 -3.003979 0.245727
v 0.684981 -2.573985 0.392064
v 0.623044 -3.055650 0.258237
v 0.727098 -2.587796 0.402589
v 0.623579 -3.089318 0.321274
v 0.738671 -2.594444 0.446146
v 0.268446 -3.388729 0.282740
v 0.194631 -3.308874 0.263407
v 0.193806 -3.256840 0.165984
v 0.266795 -3.284662 0.087896
v 0.340610 -3.364517 0.107229
v 0.341435 -3.416551 0.204652
v -0.323590 -3.393496 -0.645379
v -0.479347 -2.423706 -1.108847
v -0.216388 -3.284184 -0.633460
v -0.437039 -2.407046 -1.091352
v -0.239514 -3.163705 -0.541084
v -0.436089 -2.382253 -1.049424
v -0.369842 -3.152537 -0.460628
v -0.477447 -2.374119 -1.024992
v -0.477044 -3.261849 -0.472547
v -0.519754 -2.390778 -1.042487
v -0.453918 -3.382328 -0.564923
v -0.520704 -2.415572 -1.084415
v 0.162075 -3.961609 -0.028168
v 0.327752 -3.792671 -0.009748
v 0.292011 -3.606474 0.133016
v 0.090593 -3.589215 0.257359
v -0.075084 -3.758153 0.238938
v -0.039343 -3.944349 0.096174
vn -0.2788 -0.9050 0.3214
vn -0.3427 -0.2207 0.9132
vn -0.9686 -0.1908 -0.1593
vn -0.0709 0.2819 -0.9568
vn 0.8310 -0.3525 -0.4303
vn 0.1356 0.3880 0.9116
vn -0.8287 0.0011 0.5597
vn -0.0213 0.1428 -0.9895
vn 0.1166 0.5861 -0.8018
vn 0.5354 0.6222 0.5712
vn 0.2951 0.3428 0.8919
vn -0.9092 0.4042 0.1003
vn 0.0741 0.4569 -0.8864
vn 0.3714 0.3187 -0.8721
vn 0.3128 0.8382 -0.4468
vn -0.0026 0.8659 0.5003
vn 0.2552 0.6420 -0.7230
vn -0.7369 0.6139 0.2832
vn 0.2890 -0.4372 0.8516
vn -0.1165 -0.9424 -0.3136
vn 0.6839 -0.7077 -0.1772
vn 0.4239 -0.4441 0.7894
vn -0.1249 -0.9434 -0.3072
vn 0.6759 -0.7054 0.2135
vn 0.9266 -0.3257 0.1878
vn -0.1123 0.0610 0.9918
vn -0.7492 0.1558 0.6437
vn -0.3211 -0.5169 -0.7935
vn 0.0984 0.0690 -0.9927
vn 0.7053 0.2765 0.6527
vn -0.6787 0.2685 0.6836
vn -0.8024 0.2573 -0.5384
vn 0.5905 0.0360 -0.8062
vn 0.5292 0.3352 -0.7795
vn 0.3940 0.8826 0.2565
vn -0.5766 0.6873 0.4417
vn -0.7648 0.1785 -0.6191
vn 0.0558 0.7883 -0.6127
vn 0.4187 0.8241 -0.3816
vn -0.4828 0.8731 0.0677
vn 0.2373 0.3416 0.9094
vn -0.4193 -0.7841 0.4576
vn -0.4014 -0.4460 -0.8000
vn 0.0438 -0.5438 -0.8381
vn 0.0476 -0.7350 0.6764
vn 0.0622 -0.7015 0.7099
vn -0.4714 -0.7426 0.4756
vn -0.4318 -0.8206 -0.3744
vn 0.1294 -0.8399 -0.5272
vn 0.6019 -0.7573 0.2533
vn 0.6103 -0.7722 0.1768
vn 0.6519 -0.7582 -0.0118
vn 0.2090 -0.5494 0.8090
vn -0.8304 0.0980 0.5485
vn -0.7308 0.1279 -0.6705
vn 0.6733 0.4525 -0.5847
vn 0.7108 -0.1806 0.6798
vn -0.7651 0.2469 0.5947
vn -0.8345 0.4311 -0.3432
vn 0.3888 0.6349 -0.6676
vn 0.7442 0.4517 -0.4921
vn 0.5631 0.6963 0.4452
vn -0.6055 0.6202 0.4987
vn -0.6311 0.7612 -0.1492
vn -0.3279 0.9167 -0.2284
vn 0.7487 0.6587 -0.0746
vn -0.5310 0.8165 -0.2265
vn 0.5552 0.1963 0.8082
vn -0.1081 -0.9217 0.3725
vn -0.7438 0.3037 -0.5954
vn 0.2044 -0.3970 -0.8948
vn -0.2477 -0.8938 0.3738
vn 0.2801 -0.9547 -0.1010
vn 0.3712 -0.0614 -0.9265
vn 0.9923 -0.0159 -0.1228
vn 0.6118 0.0605 0.7887
vn -0.3723 0.0983 0.9229
vn 0.1256 0.9906 0.0548
vn -0.9915 0.0517 0.1193
vn -0.6119 -0.0294 -0.7904
vn -0.4751 -0.3026 -0.8263
vn -0.4882 0.2219 -0.8441
vn -0.5029 0.1542 0.8505
vn 0.9912 0.1321 -0.0043
vn -0.9904 -0.1382 0.0050
vn 0.5030 -0.1625 -0.8489
vn 0.4791 0.2752 0.8335
vn -0.0115 -0.9997 -0.0222
vn -0.4922 0.1377 0.8595
vn 0.9996 0.0289 0.0003
vn -0.9735 0.2285 0.0054
vn 0.5000 0.0366 0.8652
vn 0.4979 0.1230 -0.8585
vn -0.3294 -0.1228 0.9362
vn -0.9516 0.2358 0.1973
vn -0.6113 0.3926 -0.6872
vn 0.3788 0.2022 -0.9031
vn 0.2958 0.9529 0.0669
vn 0.9695 -0.1717 -0.1751
vn 0.6409 -0.3265 0.6948
vn -0.3563 0.7238 -0.5909
vn -0.6411 -0.6792 -0.3573
vn 0.4518 -0.6186 0.6427
vn 0.3669 0.1157 -0.9230
vn -0.6682 0.6539 0.3549
vn 0.7724 -0.5575 -0.3043
vn -0.2660 -0.0125 0.9639
vn 0.4403 -0.3273 -0.8361
vn 0.9760 0.2082 -0.0641
vn 0.4771 0.5593 0.6780
vn -0.5220 0.4505 0.7243
vn -0.1288 0.8549 -0.5026
vn -0.9936 -0.0953 -0.0609
vn -0.5043 -0.4362 -0.7452
vn 0.2936 0.8887 0.3522
vn 0.4241 -0.4984 0.7562
vn -0.3566 -0.8102 -0.4652
vn -0.5701 0.4869 0.6617
vn 0.8235 0.4362 -0.3628
vn -0.8963 -0.3651 0.2517
vn 0.4988 -0.4057 -0.7659
vt 0.337926 0.560669
vt 0.338303 0.730186
vt 0.406317 0.684652
vt 0.091919 0.561760
vt 0.215903 0.526843
vt 0.316430 0.626115
vt 0.162320 0.837028
vt 0.122368 0.664374
vt 0.337926 0.561760
vt 0.365164 0.694106
vt 0.165019 0.856784
vt 0.236017 0.613295
vt 0.051137 0.664374
vt 0.149041 0.694150
vt 0.299589 0.690797
vt 0.033991 0.613295
vt 0.204302 0.812453
vt 0.464488 0.690797
vt 0.364861 0.890405
vt 0.481634 0.837028
vt 0.399039 0.773381
vt 0.070306 0.856784
vt 0.449587 0.812453
vt 0.295491 0.890405
vt 0.266549 0.972096
vt 0.199402 0.972096
vt 0.199915 0.833446
vt 0.279756 0.889689
vt 0.295491 0.833611
vt 0.204302 0.918337
vt 0.215058 0.748506
vt 0.266549 0.668152
vt 0.481634 0.631070
vt 0.261436 0.481029
vt 0.122368 0.519887
vt 0.033991 0.704767
vt 0.299589 0.933238
vt 0.338303 0.481029
vt 0.405093 0.626115
vt 0.891469 0.258270
vt 0.689684 0.076689
vt 0.634224 0.085578
vt 0.633168 0.238192
vt 0.443885 0.223479
vt 0.613772 0.489352
vt 0.628658 0.256438
vt 0.895417 0.258270
vt 0.856418 0.332081
vt 0.748076 0.606431
vt 0.424446 0.278869
vt 0.489934 0.482783
vt 0.482226 0.296304
vt 0.756831 0.278869
vt 0.444243 0.536364
vt 0.860858 0.223479
vt 0.689323 0.296304
vt 0.733899 0.610430
vt 0.842176 0.524476
vt 0.913630 0.332081
vt 0.773724 0.482783
vt 0.600126 0.536364
vt 0.967483 0.489352
vt 0.924195 0.423403
vt 0.842176 0.562376
vt 0.613772 0.642810
vt 0.708546 0.403656
vt 0.773724 0.165261
vt 0.752677 0.177178
vt 0.752677 0.585126
vt 0.611276 0.673326
vt 0.524540 0.409226
vt 0.444243 0.275453
vt 0.611276 0.278184
vt 0.887049 0.524476
vt 0.593179 0.069810
vt 0.665908 0.282505
vt 0.735432 0.332058
vt 0.948044 0.303985
vt 0.756831 0.099773
vt 0.587655 0.086051
vt 0.665908 0.091578
vt 0.711506 0.069810
vt 0.643342 0.086051
vt 0.689684 0.393679
vt 0.891469 0.570744
vt 0.651056 0.340100
vt 0.651056 0.033232
vt 0.587655 0.318669
vt 0.593179 0.386833
vt 0.634224 0.402245
vt 0.252765 0.261467
vt 0.068061 0.254684
vt 0.196128 0.330222
vt 0.192598 0.138996
vt 0.292717 0.048524
vt 0.319449 0.144286
vt 0.245861 0.189247
vt 0.246851 0.117248
vt 0.373777 0.138996
vt 0.285992 0.221557
vt 0.036518 0.205932
vt 0.110314 0.292432
vt 0.068061 0.092563
vt 0.167097 0.307724
vt 0.252765 0.048524
vt 0.196128 0.123119
vt 0.279543 0.221592
vt 0.304247 0.144286
vt 0.132076 0.221557
vt 0.194977 0.205932
vt 0.184758 0.292432
vt 0.256613 0.307724
vt 0.408795 0.189247
vt 0.284107 0.334289
vt 0.264571 0.334289
vt 0.174780 0.272180
vt 0.110314 0.153508
vt 0.285992 0.100826
vt 0.277013 0.143530
vt 0.231459 0.186336
vt 0.167097 0.225363
vt 0.284107 0.233321
vt 0.092934 0.083165
vt 0.373777 0.161347
vt 0.246851 0.052591
vt 0.092934 0.057374
vt 0.114415 0.057374
vt 0.285934 0.092563
vt 0.848674 0.844806
vt 0.828950 0.845966
vt 0.863303 0.824236
vt 0.873294 0.838582
vt 0.900757 0.844645
vt 0.893091 0.862214
vt 0.900757 0.888966
vt 0.880301 0.891627
vt 0.866267 0.909149
vt 0.852189 0.891554
vt 0.818360 0.705277
vt 0.818360 0.777523
vt 0.755793 0.813646
vt 0.693226 0.777523
vt 0.693226 0.705277
vt 0.755793 0.669154
vt 0.829744 0.888751
vt 0.838583 0.870021
vt 0.853275 0.848584
vt 0.845491 0.870938
vt 0.861217 0.863190
vt 0.857093 0.868337
vt 0.858485 0.885912
vt 0.876503 0.883940
vt 0.883095 0.868465
vt 0.877338 0.851555
vt 0.866288 0.861632
vt 0.870914 0.865467
vt 0.867464 0.869950
vt 0.862821 0.871323
vt 0.918190 0.874634
vt 0.919154 0.870182
vt 0.925690 0.874289
vt 0.922184 0.875195
vt 0.925514 0.882707
vt 0.922464 0.881394
vt 0.918240 0.887131
vt 0.917003 0.883448
vt 0.911347 0.883271
vt 0.914837 0.880163
vt 0.954083 0.705277
vt 0.954083 0.777523
vt 0.891516 0.813646
vt 0.828950 0.777523
vt 0.828950 0.705277
vt 0.891516 0.669154
vt 0.911347 0.874441
vt 0.915276 0.876856
vt 0.918154 0.880311
vt 0.920264 0.879906
vt 0.918756 0.877616
vt 0.919788 0.877483
vt 0.917927 0.879377
vt 0.918528 0.878547
vt 0.926550 0.850628
vt 0.925078 0.859592
vt 0.911347 0.851274
vt 0.919069 0.850620
vt 0.911928 0.833128
vt 0.916505 0.836745
vt 0.927153 0.824236
vt 0.929636 0.830379
vt 0.941076 0.832049
vt 0.934970 0.838263
vt 0.818360 0.860359
vt 0.818360 0.932604
vt 0.755793 0.968727
vt 0.693226 0.932604
vt 0.693226 0.860359
vt 0.755793 0.824236
vt 0.941076 0.850599
vt 0.933949 0.845729
vt 0.927349 0.837967
vt 0.922659 0.839326
vt 0.926170 0.843766
vt 0.924075 0.843831
vt 0.927816 0.839901
vt 0.926613 0.841824
s 0
usemtl Material.002
f 1/1/1 17/2/1 16/3/1
f 1/4/2 16/5/2 5/6/2 10/7/2
f 2/8/3 1/9/3 14/10/3 6/11/3
f 3/12/4 2/13/4 7/14/4
f 4/15/5 3/16/5 8/17/5
f 5/6/6 4/18/6 9/19/6
f 1/9/7 10/20/7 15/21/7 14/10/7
f 2/13/8 6/22/8 7/14/8
f 3/12/9 7/14/9 8/23/9
f 4/15/10 8/17/10 9/24/10
f 5/6/11 9/19/11 10/7/11
f 6/11/12 15/21/12 10/20/12 11/25/12
f 7/14/13 6/22/13 11/26/13 12/27/13
f 8/23/14 7/14/14 12/27/14 13/28/14
f 9/29/15 8/30/15 13/31/15 11/32/15
f 10/33/16 9/29/16 11/32/16
f 13/28/17 12/27/17 11/26/17
f 14/10/18 15/21/18 6/11/18
f 16/5/19 17/34/19 5/6/19
f 17/2/20 2/35/20 3/36/20
f 17/2/21 3/36/21 4/37/21
f 17/38/22 4/15/22 5/39/22
f 17/2/23 1/1/23 2/35/23
f 18/40/24 37/41/24 38/42/24 33/43/24
f 18/40/25 33/43/25 22/44/25 27/45/25
f 19/46/26 18/47/26 31/48/26 23/49/26
f 20/50/27 19/46/27 24/51/27
f 21/52/28 20/53/28 25/54/28
f 22/55/29 21/56/29 26/57/29
f 18/40/30 27/45/30 32/58/30 31/59/30
f 19/46/31 23/49/31 24/51/31
f 20/53/32 24/60/32 25/54/32
f 21/56/33 25/61/33 26/57/33
f 22/55/34 26/57/34 27/62/34
f 23/63/35 32/64/35 27/65/35 28/66/35
f 24/67/36 23/63/36 28/66/36 29/68/36
f 25/54/37 24/60/37 29/69/37 30/70/37
f 26/71/38 25/72/38 30/73/38 28/66/38
f 27/65/39 26/71/39 28/66/39
f 30/73/40 29/68/40 28/66/40
f 31/48/41 32/74/41 23/49/41
f 33/43/24 38/42/24 36/75/24 22/44/24
f 39/76/42 34/77/42 19/78/42 20/79/42
f 35/80/43 39/81/43 20/53/43 21/52/43
f 36/82/44 35/83/44 21/56/44 22/55/44
f 34/77/45 37/84/45 18/85/45 19/78/45
f 37/84/46 34/77/46 40/86/46
f 34/77/47 39/76/47 40/86/47
f 39/81/48 35/80/48 40/87/48
f 35/88/49 36/89/49 40/86/49
f 36/89/50 38/90/50 40/86/50
f 38/90/51 37/84/51 40/86/51
f 41/91/52 45/92/52 50/93/52
f 42/94/53 41/95/53 54/96/53 46/97/53
f 43/98/54 42/99/54 47/100/54
f 44/101/55 43/98/55 48/102/55
f 45/103/56 44/101/56 49/104/56
f 41/105/57 50/106/57 55/107/57 54/108/57
f 42/94/58 46/97/58 47/109/58
f 43/98/59 47/100/59 48/102/59
f 44/110/60 48/111/60 49/112/60
f 45/103/61 49/104/61 50/106/61
f 46/113/62 55/107/62 50/106/62 51/114/62
f 47/109/63 46/97/63 51/115/63 52/116/63
f 48/117/64 47/118/64 52/119/64 53/120/64
f 49/121/65 48/117/65 53/120/65 51/122/65
f 50/106/66 49/104/66 51/114/66
f 53/120/67 52/119/67 51/122/67
f 54/108/68 55/107/68 46/113/68
f 56/123/69 42/124/69 43/125/69
f 56/126/70 43/98/70 44/101/70
f 56/127/71 44/110/71 45/128/71
f 56/123/72 41/91/72 42/124/72
f 56/123/73 45/92/73 41/91/73
f 57/129/74 58/130/74 60/131/74 59/132/74
f 59/132/75 60/131/75 62/133/75 61/134/75
f 61/134/76 62/133/76 64/135/76 63/136/76
f 63/136/77 64/135/77 66/137/77 65/138/77
f 60/139/78 58/140/78 68/141/78 66/142/78 64/143/78 62/144/78
f 65/138/79 66/137/79 68/145/79 67/146/79
f 67/146/80 68/145/80 58/130/80 57/129/80
f 67/146/81 57/129/81 69/147/81 74/148/81
f 74/148/82 69/147/82 75/149/82 80/150/82
f 63/136/83 65/138/83 73/151/83 72/152/83
f 59/132/84 61/134/84 71/153/84 70/154/84
f 65/138/85 67/146/85 74/148/85 73/151/85
f 57/129/86 59/132/86 70/154/86 69/147/86
f 61/134/87 63/136/87 72/152/87 71/153/87
f 75/149/88 76/155/88 77/156/88 78/157/88 79/158/88 80/150/88
f 72/152/89 73/151/89 79/158/89 78/157/89
f 70/154/90 71/153/90 77/156/90 76/155/90
f 73/151/91 74/148/91 80/150/91 79/158/91
f 71/153/92 72/152/92 78/157/92 77/156/92
f 69/147/93 70/154/93 76/155/93 75/149/93
f 81/159/94 82/160/94 84/161/94 83/162/94
f 83/162/95 84/161/95 86/163/95 85/164/95
f 85/164/96 86/163/96 88/165/96 87/166/96
f 87/166/97 88/165/97 90/167/97 89/168/97
f 84/169/98 82/170/98 92/171/98 90/172/98 88/173/98 86/174/98
f 89/168/99 90/167/99 92/175/99 91/176/99
f 91/176/100 92/175/100 82/160/100 81/159/100
f 85/164/101 87/166/101 96/177/101 95/178/101
f 93/179/102 94/180/102 95/178/102 96/177/102 97/181/102 98/182/102
f 91/176/103 81/159/103 93/179/103 98/182/103
f 87/166/104 89/168/104 97/181/104 96/177/104
f 83/162/105 85/164/105 95/178/105 94/180/105
f 89/168/106 91/176/106 98/182/106 97/181/106
f 81/159/107 83/162/107 94/180/107 93/179/107
f 99/183/108 100/184/108 102/185/108 101/186/108
f 101/186/109 102/185/109 104/187/109 103/188/109
f 103/188/110 104/187/110 106/189/110 105/190/110
f 105/190/111 106/189/111 108/191/111 107/192/111
f 102/193/112 100/194/112 110/195/112 108/196/112 106/197/112 104/198/112
f 107/192/113 108/191/113 110/199/113 109/200/113
f 109/200/114 110/199/114 100/184/114 99/183/114
f 103/188/115 105/190/115 114/201/115 113/202/115
f 111/203/116 112/204/116 113/202/116 114/201/116 115/205/116 116/206/116
f 109/200/117 99/183/117 111/203/117 116/206/117
f 105/190/118 107/192/118 115/205/118 114/201/118
f 101/186/119 103/188/119 113/202/119 112/204/119
f 107/192/120 109/200/120 116/206/120 115/205/120
f 99/183/121 101/186/121 112/204/121 111/203/121
