# Blender 4.5.1 LTS
# www.blender.org
mtllib Pigeon.mtl
o Zozio
v 0.000000 4.366317 -0.018960
v -0.368161 4.155279 -0.232100
v 0.000000 3.651219 -1.148136
v 0.000000 4.451540 -0.624547
v 0.000000 3.965108 0.325993
v -0.376367 3.712015 -0.186819
v 0.000000 3.601465 -0.593421
v -0.299123 3.840348 0.089571
v 0.000000 3.289651 0.675546
v -0.838793 2.763706 0.160300
v 0.000000 1.729057 -0.377610
v -0.526118 3.267884 0.613665
v 0.000000 2.054515 3.016604
v -1.029478 1.830657 1.971085
v 0.000000 0.910063 1.139885
v -0.689596 2.134713 2.172560
v 0.000000 1.009400 5.251249
v -0.592526 0.981742 3.504668
v 0.000000 0.796112 1.829465
v -0.275720 0.822891 4.920330
v -0.616514 1.000581 1.400073
v -0.503794 0.793664 1.820531
v -0.185223 4.052330 -0.691766
v -0.215591 3.635414 -0.505374
v -0.412576 0.406897 1.252591
v -0.412576 0.387043 1.364858
v -0.557602 0.403020 1.312287
v -0.531833 0.388065 1.438574
v -0.468532 -0.000295 0.867085
v -0.452462 -0.000295 0.995986
v -0.564918 -0.000295 0.879056
v -0.563060 -0.000295 1.006136
v -0.554800 0.078543 1.069409
v -0.459232 0.068263 1.043949
v -0.464084 0.102909 0.956696
v -0.558558 0.106575 0.977346
v -0.522439 -0.000295 0.296349
v -0.757015 -0.000295 0.498746
v -0.265413 -0.000295 0.498746
v 0.000000 3.725803 -0.684493
v 0.000000 4.211104 -0.849742
v -7.008792 3.779483 1.517724
v -4.364111 3.306293 0.651944
v -4.396129 2.142741 2.744164
v -4.391674 3.225159 0.604746
v -4.410177 2.056481 2.707794
v -1.179165 1.944151 2.822602
v -1.108441 3.107703 0.631840
v -1.119175 3.000833 0.473302
v -1.240480 1.871723 2.556595
v 0.368161 4.155279 -0.232100
v 0.376367 3.712015 -0.186819
v 0.299123 3.840348 0.089571
v 0.838793 2.763706 0.160300
v 0.526118 3.267884 0.613665
v 1.029478 1.830657 1.971085
v 0.689596 2.134713 2.172560
v 0.592526 0.981742 3.504668
v 0.275720 0.822891 4.920330
v 0.616514 1.000581 1.400073
v 0.503794 0.793664 1.820531
v 0.185223 4.052330 -0.691766
v 0.215591 3.635414 -0.505374
v 0.412576 0.406897 1.252591
v 0.412576 0.387043 1.364858
v 0.557602 0.403020 1.312287
v 0.531833 0.388065 1.438574
v 0.468532 -0.000295 0.867085
v 0.452462 -0.000295 0.995986
v 0.564918 -0.000295 0.879056
v 0.563060 -0.000295 1.006136
v 0.554800 0.078543 1.069409
v 0.459232 0.068263 1.043949
v 0.464084 0.102909 0.956696
v 0.558558 0.106575 0.977346
v 0.522439 -0.000295 0.296349
v 0.757015 -0.000295 0.498746
v 0.265413 -0.000295 0.498746
v 7.008792 3.779483 1.517724
v 4.364111 3.306293 0.651944
v 4.396129 2.142741 2.744164
v 4.391674 3.225159 0.604746
v 4.410177 2.056481 2.707794
v 1.179165 1.944151 2.822602
v 1.108441 3.107703 0.631840
v 1.119175 3.000833 0.473302
v 1.240480 1.871723 2.556595
vn -0.7964 0.4395 -0.4154
vn -0.6569 0.4916 0.5717
vn -0.5440 0.8309 0.1169
vn -0.8951 -0.0289 -0.4448
vn -0.9076 0.4155 0.0607
vn -0.6663 0.3427 0.6622
vn 0.3016 0.8313 0.4669
vn -0.4241 0.8010 0.4226
vn -0.9531 0.1909 0.2347
vn -0.8917 -0.4526 0.0036
vn -0.7463 0.6029 0.2820
vn -0.4008 -0.3576 -0.8435
vn 0.7556 -0.6451 -0.1141
vn -0.7704 0.4358 -0.4653
vn -0.3892 -0.5443 -0.7431
vn 0.0753 -0.5666 0.8205
vn -0.3810 0.0975 -0.9194
vn -0.9721 -0.1218 0.2007
vn -0.0082 -0.7469 0.6649
vn -0.0000 -1.0000 -0.0000
vn 0.7706 0.6059 0.1977
vn -0.2809 0.7191 -0.6356
vn -0.9728 -0.1442 0.1814
vn 0.9927 -0.0826 -0.0880
vn 0.1078 -0.7131 0.6927
vn 0.0045 0.9879 -0.1548
vn 0.9948 0.0387 -0.0940
vn -0.9895 0.1252 -0.0721
vn -0.9179 -0.1854 0.3509
vn -0.7987 0.5657 0.2049
vn 0.8394 0.3400 -0.4240
vn -0.7964 0.4157 -0.4392
vn 0.9251 -0.1521 0.3480
vn -0.7562 0.3077 -0.5774
vn -0.1735 0.5386 -0.8245
vn -0.3347 -0.8224 -0.4600
vn -0.5362 -0.2523 0.8055
vn 0.0211 -0.3913 0.9200
vn -0.0792 -0.8745 -0.4786
vn 0.0470 0.8268 -0.5605
vn 0.0430 0.8818 0.4697
vn 0.2787 0.8444 0.4575
vn -0.2401 0.8124 -0.5314
vn -0.7990 -0.4962 -0.3398
vn 0.5559 -0.7909 0.2558
vn 0.7219 -0.6510 -0.2346
vn 0.0029 -0.9938 0.1111
vn -0.8678 -0.4905 0.0789
vn -0.9672 0.0435 0.2501
vn -0.3131 -0.8358 -0.4511
vn -0.9246 -0.2902 -0.2469
vn -0.8439 0.2349 -0.4824
vn 0.7964 0.4395 -0.4154
vn 0.6294 0.4835 0.6084
vn 0.5440 0.8309 0.1169
vn 0.9321 -0.0890 -0.3510
vn 0.9076 0.4155 0.0607
vn 0.6663 0.3427 0.6622
vn -0.3016 0.8313 0.4669
vn 0.1015 0.8097 0.5780
vn 0.7256 0.4932 0.4798
vn 0.8909 -0.4539 0.0155
vn 0.4471 0.7792 0.4393
vn 0.4008 -0.3576 -0.8435
vn -0.7579 -0.6436 -0.1064
vn 0.7704 0.4358 -0.4653
vn 0.5248 -0.3153 -0.7907
vn -0.1363 -0.6287 0.7656
vn 0.3743 0.1004 -0.9219
vn 0.9721 -0.1218 0.2007
vn 0.0082 -0.7469 0.6649
vn -0.7706 0.6059 0.1977
vn 0.2809 0.7191 -0.6356
vn 0.9728 -0.1442 0.1814
vn -0.9921 -0.1233 -0.0218
vn -0.3567 -0.7267 0.5871
vn -0.0045 0.9879 -0.1548
vn -0.9948 0.0387 -0.0940
vn 0.9895 0.1252 -0.0721
vn 0.9179 -0.1854 0.3509
vn 0.7987 0.5657 0.2049
vn -0.8394 0.3400 -0.4240
vn 0.7964 0.4157 -0.4392
vn -0.9251 -0.1521 0.3480
vn 0.7562 0.3077 -0.5774
vn 0.1735 0.5386 -0.8245
vn 0.3347 -0.8224 -0.4600
vn 0.5362 -0.2523 0.8055
vn 0.0659 -0.9588 0.2763
vn 0.0792 -0.8745 -0.4786
vn -0.0470 0.8268 -0.5605
vn -0.0430 0.8818 0.4697
vn 0.2031 0.8020 0.5617
vn 0.1594 0.7129 -0.6829
vn 0.7990 -0.4962 -0.3398
vn -0.5559 -0.7909 0.2558
vn -0.7219 -0.6510 -0.2346
vn -0.0029 -0.9938 0.1111
vn 0.8678 -0.4905 0.0789
vn 0.9672 0.0435 0.2501
vn 0.3131 -0.8358 -0.4511
vn 0.7947 -0.4130 -0.4448
vn 0.8439 0.2349 -0.4824
vn -0.6294 0.4835 0.6084
vn -0.9321 -0.0890 -0.3510
vn -0.8813 0.4635 0.0923
vn -0.1123 0.6948 0.7103
vn -0.1015 0.8097 0.5780
vn -0.7256 0.4932 0.4798
vn -0.8909 -0.4539 0.0155
vn -0.4471 0.7792 0.4393
vn -0.6142 -0.0904 -0.7840
vn 0.7579 -0.6436 -0.1064
vn -0.5248 -0.3153 -0.7907
vn 0.1363 -0.6287 0.7656
vn -0.3743 0.1004 -0.9219
vn -0.9751 -0.1232 0.1844
vn 0.3986 -0.6432 0.6538
vn -0.1258 0.7028 -0.7002
vn -0.9990 -0.0319 0.0311
vn 0.9921 -0.1233 -0.0218
vn 0.3567 -0.7267 0.5871
vn -0.0659 -0.9588 0.2763
vn -0.0739 -0.8714 -0.4849
vn -0.0002 0.5029 -0.8643
vn 0.0562 0.8722 0.4859
vn -0.2031 0.8020 0.5617
vn -0.1594 0.7129 -0.6829
vn -0.8607 -0.4249 -0.2804
vn 0.4947 -0.8607 0.1203
vn -0.1355 -0.9889 0.0616
vn -0.7947 -0.4130 -0.4448
vn 0.6569 0.4916 0.5717
vn 0.8951 -0.0289 -0.4448
vn 0.8813 0.4635 0.0923
vn 0.1123 0.6948 0.7103
vn 0.4241 0.8010 0.4226
vn 0.9531 0.1909 0.2347
vn 0.8917 -0.4526 0.0036
vn 0.7463 0.6029 0.2820
vn 0.6142 -0.0904 -0.7840
vn -0.7556 -0.6451 -0.1141
vn 0.3892 -0.5443 -0.7431
vn -0.0753 -0.5666 0.8205
vn 0.3811 0.0975 -0.9194
vn 0.9751 -0.1232 0.1844
vn -0.3986 -0.6432 0.6538
vn 0.1258 0.7028 -0.7002
vn 0.9990 -0.0319 0.0311
vn -0.9927 -0.0826 -0.0880
vn -0.1078 -0.7131 0.6927
vn -0.0211 -0.3913 0.9200
vn 0.0739 -0.8714 -0.4849
vn 0.0002 0.5029 -0.8643
vn -0.0562 0.8722 0.4859
vn -0.2787 0.8444 0.4575
vn 0.2401 0.8124 -0.5314
vn 0.8607 -0.4249 -0.2804
vn -0.4947 -0.8607 0.1203
vn 0.1355 -0.9889 0.0616
vn 0.9246 -0.2902 -0.2469
vt 0.867104 0.828178
vt 0.908260 0.821072
vt 0.906678 0.849150
vt 0.880535 0.797695
vt 0.839512 0.801568
vt 0.855655 0.776718
vt 0.842084 0.825057
vt 0.841529 0.865914
vt 0.822619 0.849437
vt 0.758821 0.842357
vt 0.812521 0.829981
vt 0.815653 0.742989
vt 0.447369 0.778660
vt 0.518517 0.928482
vt 0.322924 0.969501
vt 0.685958 0.695577
vt 0.673284 0.622948
vt 0.628969 0.645966
vt 0.519777 0.586639
vt 0.474548 0.494359
vt 0.293093 0.168380
vt 0.221506 0.218536
vt 0.142944 0.140880
vt 0.534216 0.544602
vt 0.541550 0.511875
vt 0.384025 0.401971
vt 0.374051 0.291646
vt 0.393660 0.389049
vt 0.288223 0.684609
vt 0.328418 0.628513
vt 0.337972 0.635370
vt 0.922028 0.832681
vt 0.394762 0.411086
vt 0.386327 0.614020
vt 0.387736 0.607155
vt 0.393621 0.613089
vt 0.339420 0.701853
vt 0.354780 0.643382
vt 0.367322 0.651406
vt 0.377620 0.707759
vt 0.380651 0.648394
vt 0.425996 0.710525
vt 0.326549 0.592027
vt 0.341664 0.594291
vt 0.335153 0.601352
vt 0.364836 0.593769
vt 0.356598 0.595898
vt 0.337875 0.545610
vt 0.288230 0.577457
vt 0.333261 0.584793
vt 0.292732 0.545591
vt 0.373554 0.599244
vt 0.376043 0.607963
vt 0.394998 0.524892
vt 0.364860 0.577992
vt 0.384652 0.586607
vt 0.425996 0.573813
vt 0.330896 0.545591
vt 0.348686 0.591955
vt 0.955658 0.861036
vt 0.519316 0.955192
vt 0.520498 0.961818
vt 0.327492 0.985432
vt 0.566141 0.159922
vt 0.490136 0.023633
vt 0.708050 0.039281
vt 0.489293 0.017411
vt 0.302546 0.127613
vt 0.386235 0.264693
vt 0.730237 0.878078
vt 0.725137 0.865911
vt 0.732939 0.814905
vt 0.633581 0.669974
vt 0.264396 0.152817
vt 0.029389 0.099832
vt 0.059632 0.094182
vt 0.197728 0.243266
vt 0.415793 0.396369
vt 0.418548 0.431276
vt 0.248779 0.228838
vt 0.301160 0.331541
vt 0.227923 0.269338
vt 0.759791 0.893386
vt 0.908310 0.779307
vt 0.935668 0.814769
vt 0.877421 0.756608
vt 0.899964 0.754163
vt 0.940238 0.747265
vt 0.927021 0.775547
vt 0.904114 0.669224
vt 0.921023 0.731146
vt 0.900233 0.724194
vt 0.788587 0.373973
vt 0.955658 0.219072
vt 0.948275 0.418784
vt 0.747009 0.623169
vt 0.845744 0.706225
vt 0.689737 0.574413
vt 0.611252 0.478067
vt 0.715687 0.550759
vt 0.138791 0.349664
vt 0.177223 0.270928
vt 0.191398 0.296410
vt 0.572567 0.499117
vt 0.273513 0.409897
vt 0.372829 0.413564
vt 0.713478 0.354847
vt 0.673283 0.298751
vt 0.750672 0.302153
vt 0.383652 0.434222
vt 0.615374 0.284258
vt 0.613965 0.277394
vt 0.625658 0.278201
vt 0.662281 0.372091
vt 0.663729 0.305608
vt 0.634379 0.321645
vt 0.624081 0.377998
vt 0.621050 0.318633
vt 0.575705 0.380764
vt 0.661262 0.264750
vt 0.676376 0.262485
vt 0.667773 0.271811
vt 0.636866 0.264008
vt 0.663826 0.215849
vt 0.645103 0.266137
vt 0.714696 0.247915
vt 0.669665 0.255251
vt 0.710194 0.216049
vt 0.628147 0.269482
vt 0.646921 0.313621
vt 0.606703 0.195131
vt 0.636841 0.248231
vt 0.617049 0.256846
vt 0.575705 0.244052
vt 0.672030 0.216049
vt 0.653015 0.262193
vt 0.978357 0.415093
vt 0.978419 0.220899
vt 0.985086 0.415231
vt 0.174362 0.620562
vt 0.078198 0.780065
vt 0.027622 0.567506
vt 0.021345 0.567678
vt 0.100075 0.365574
vt 0.082994 0.358778
vt 0.248833 0.426209
vt 0.934959 0.635435
vt 0.922148 0.632288
vt 0.872559 0.649313
vt 0.712925 0.575871
vt 0.954673 0.662252
vt 0.118790 0.323860
vt 0.087980 0.205465
vt 0.028614 0.130586
vt 0.867413 0.848462
vt 0.784502 0.778859
vt 0.610519 0.675840
vt 0.251029 0.631914
vt 0.293085 0.111852
vt 0.512202 0.450673
vt 0.608080 0.283328
s 0
f 2/1/1 4/2/1 23/3/1
f 1/4/2 8/5/2 5/6/2
f 4/2/3 2/1/3 1/4/3
f 2/7/4 24/8/4 6/9/4
f 6/9/5 12/10/5 8/11/5
f 8/5/6 9/12/6 5/6/6
f 44/13/7 43/14/7 42/15/7
f 9/12/8 16/16/8 13/17/8
f 16/18/9 18/19/9 20/20/9
f 14/21/10 22/22/10 18/23/10
f 13/17/11 20/24/11 17/25/11
f 7/26/12 10/27/12 24/28/12
f 15/29/13 26/30/13 25/31/13
f 23/3/14 4/2/14 41/32/14
f 24/28/15 40/33/15 7/26/15
f 34/34/16 32/35/16 30/36/16
f 21/37/17 25/31/17 27/38/17
f 21/37/18 28/39/18 22/40/18
f 22/40/19 26/41/19 19/42/19
f 31/43/20 30/44/20 32/45/20
f 35/46/21 34/47/21 39/48/21
f 31/43/20 32/45/20 38/49/20
f 29/50/20 31/43/20 37/51/20
f 25/31/22 36/52/22 27/38/22
f 27/38/23 33/53/23 28/39/23
f 25/31/24 34/47/24 35/46/24
f 26/41/25 33/53/25 34/34/25
f 36/52/26 35/46/26 37/54/26
f 35/46/27 29/55/27 37/54/27
f 31/56/28 36/52/28 37/54/28
f 32/35/29 33/53/29 38/57/29
f 33/53/30 36/52/30 38/57/30
f 36/52/31 31/56/31 38/57/31
f 29/55/32 35/46/32 39/48/32
f 30/44/20 29/50/20 39/58/20
f 34/47/33 30/59/33 39/48/33
f 41/32/34 3/60/34 23/3/34
f 43/61/35 45/62/35 42/63/35
f 45/64/36 46/65/36 42/66/36
f 46/65/37 44/67/37 42/66/37
f 50/68/38 44/67/38 46/65/38
f 50/68/39 45/64/39 49/69/39
f 49/70/40 43/61/40 48/71/40
f 48/72/41 44/13/41 47/73/41
f 16/16/42 48/72/42 47/73/42
f 12/10/43 49/70/43 48/71/43
f 14/21/44 49/69/44 10/27/44
f 16/74/45 50/68/45 14/21/45
f 18/23/46 17/75/46 20/76/46
f 19/77/47 18/23/47 22/22/47
f 23/78/48 3/79/48 40/33/48
f 8/11/49 2/7/49 6/9/49
f 21/80/50 11/81/50 15/82/50
f 10/27/51 21/80/51 14/21/51
f 10/83/52 6/9/52 24/8/52
f 51/84/53 62/85/53 4/2/53
f 1/4/54 53/86/54 51/84/54
f 4/2/55 1/4/55 51/84/55
f 51/87/56 63/88/56 62/89/56
f 55/90/57 52/91/57 53/92/57
f 9/12/58 53/86/58 5/6/58
f 81/93/59 79/94/59 80/95/59
f 9/12/60 57/96/60 55/97/60
f 57/98/61 58/99/61 56/100/61
f 56/101/62 61/102/62 60/103/62
f 13/17/63 59/104/63 57/96/63
f 54/105/64 7/26/64 63/106/64
f 15/107/65 65/108/65 19/109/65
f 62/85/66 41/32/66 4/2/66
f 63/106/67 40/33/67 62/110/67
f 73/111/68 71/112/68 72/113/68
f 60/114/69 64/115/69 15/107/69
f 67/116/70 60/114/70 61/117/70
f 65/118/71 61/117/71 19/119/71
f 69/120/20 70/121/20 71/122/20
f 74/123/72 78/124/72 73/125/72
f 70/121/20 77/126/20 71/122/20
f 68/127/20 76/128/20 70/121/20
f 75/129/73 64/115/73 66/130/73
f 72/113/74 66/130/74 67/116/74
f 64/115/75 73/125/75 65/108/75
f 65/118/76 72/113/76 67/116/76
f 75/129/77 76/131/77 74/123/77
f 74/123/78 76/131/78 68/132/78
f 70/133/79 76/131/79 75/129/79
f 71/112/80 77/134/80 72/113/80
f 72/113/81 77/134/81 75/129/81
f 75/129/82 77/134/82 70/133/82
f 68/132/83 78/124/83 74/123/83
f 69/120/20 78/135/20 68/127/20
f 73/125/84 78/124/84 69/136/84
f 41/32/85 62/85/85 3/60/85
f 80/137/86 79/138/86 82/139/86
f 82/140/87 79/141/87 83/142/87
f 83/142/88 79/141/88 81/143/88
f 87/144/89 81/143/89 84/145/89
f 82/140/90 87/144/90 86/146/90
f 80/137/91 86/147/91 85/148/91
f 81/93/92 85/149/92 84/150/92
f 57/96/93 85/149/93 55/97/93
f 55/90/94 86/147/94 54/151/94
f 86/146/95 56/101/95 54/105/95
f 87/144/96 57/152/96 56/101/96
f 17/75/97 58/153/97 59/154/97
f 19/77/98 61/102/98 58/153/98
f 62/110/99 40/33/99 3/79/99
f 53/92/100 52/91/100 51/87/100
f 60/103/101 15/82/101 11/81/101
f 54/105/102 60/103/102 11/81/102
f 54/151/103 63/88/103 52/91/103
f 1/4/104 2/1/104 8/5/104
f 2/7/105 23/155/105 24/8/105
f 6/9/106 10/83/106 12/10/106
f 8/5/107 12/156/107 9/12/107
f 9/12/108 12/156/108 16/16/108
f 16/18/109 14/157/109 18/19/109
f 14/21/110 21/80/110 22/22/110
f 13/17/111 16/16/111 20/24/111
f 7/26/112 11/81/112 10/27/112
f 15/29/113 19/158/113 26/30/113
f 24/28/114 23/78/114 40/33/114
f 34/34/115 33/53/115 32/35/115
f 21/37/116 15/29/116 25/31/116
f 21/37/117 27/38/117 28/39/117
f 22/40/118 28/39/118 26/41/118
f 31/43/20 29/50/20 30/44/20
f 25/31/119 35/46/119 36/52/119
f 27/38/120 36/52/120 33/53/120
f 25/31/121 26/30/121 34/47/121
f 26/41/122 28/39/122 33/53/122
f 50/68/123 47/159/123 44/67/123
f 50/68/124 46/65/124 45/64/124
f 49/70/125 45/62/125 43/61/125
f 48/72/126 43/14/126 44/13/126
f 16/16/127 12/156/127 48/72/127
f 12/10/128 10/83/128 49/70/128
f 14/21/129 50/68/129 49/69/129
f 16/74/130 47/159/130 50/68/130
f 18/23/131 19/77/131 17/75/131
f 10/27/132 11/81/132 21/80/132
f 1/4/133 5/6/133 53/86/133
f 51/87/134 52/91/134 63/88/134
f 55/90/135 54/151/135 52/91/135
f 9/12/136 55/97/136 53/86/136
f 9/12/137 13/17/137 57/96/137
f 57/98/138 59/160/138 58/99/138
f 56/101/139 58/153/139 61/102/139
f 13/17/140 17/25/140 59/104/140
f 54/105/141 11/81/141 7/26/141
f 15/107/142 64/115/142 65/108/142
f 63/106/143 7/26/143 40/33/143
f 73/111/144 69/161/144 71/112/144
f 60/114/145 66/130/145 64/115/145
f 67/116/146 66/130/146 60/114/146
f 65/118/147 67/116/147 61/117/147
f 69/120/20 68/127/20 70/121/20
f 75/129/148 74/123/148 64/115/148
f 72/113/149 75/129/149 66/130/149
f 64/115/150 74/123/150 73/125/150
f 65/118/151 73/111/151 72/113/151
f 87/144/152 83/142/152 81/143/152
f 82/140/153 83/142/153 87/144/153
f 80/137/154 82/139/154 86/147/154
f 81/93/155 80/95/155 85/149/155
f 57/96/156 84/150/156 85/149/156
f 55/90/157 85/148/157 86/147/157
f 86/146/158 87/144/158 56/101/158
f 87/144/159 84/145/159 57/152/159
f 17/75/160 19/77/160 58/153/160
f 54/105/161 56/101/161 60/103/161
