# Blender 4.5.1 LTS
# www.blender.org
mtllib TornadeOrage.mtl
o Sphere
v 0.160246 0.832157 -0.533698
v -0.370251 0.557157 -0.747402
v -0.847570 0.195090 -0.493522
v -0.988762 0.000000 -0.149497
v 0.182312 0.709697 -0.683778
v -0.141388 0.555570 -0.819360
v -0.735003 0.195090 -0.649392
v -0.940598 0.000000 -0.339522
v 0.171962 0.984170 -0.118493
v -0.383609 0.384613 -0.843855
v -0.856287 0.000000 -0.516500
v 0.346069 0.927431 -0.155207
v 0.396284 0.833363 -0.395600
v 0.367437 0.707107 -0.604144
v 0.107381 0.557157 -0.827143
v -0.126723 0.382683 -0.915147
v -0.514705 0.195923 -0.839423
v -0.739069 0.000000 -0.673629
v -0.250350 0.195090 -0.948295
v -0.593449 0.000000 -0.804870
v 0.532782 0.832157 -0.163267
v 0.531474 0.709697 -0.467254
v 0.415741 0.557157 -0.723088
v 0.149862 0.384613 -0.914761
v -0.060536 0.195090 -0.978915
v -0.425024 0.000000 -0.905181
v 0.000000 1.000000 0.000000
v 0.373975 0.927431 0.063215
v 0.131604 0.195090 -0.971915
v -0.240265 0.000000 -0.970707
v 0.143506 0.981177 0.140574
v 0.554706 0.832157 0.053048
v 0.669828 0.709697 -0.228300
v 0.660809 0.557157 -0.508948
v 0.488518 0.384613 -0.787780
v -0.046273 0.000000 -0.998928
v 0.303464 0.925199 0.231080
v 0.411999 0.195923 -0.894320
v 0.149498 0.000000 -0.988762
v 0.492180 0.832157 0.261286
v 0.706207 0.709697 0.045410
v 0.805274 0.557157 -0.217326
v 0.752802 0.384613 -0.540866
v 0.339523 0.000000 -0.940597
v 0.310688 0.833363 0.465847
v 0.664219 0.707107 0.242514
v 0.872841 0.382683 -0.302824
v 0.722879 0.195923 -0.668579
v 0.516500 0.000000 -0.856286
v 0.827143 0.557157 0.107382
v 0.923708 0.195923 -0.341052
v 0.673629 0.000000 -0.739069
v -0.037155 0.981177 0.197420
v 0.116478 0.930628 0.357610
v 0.561961 0.709697 0.430105
v 0.759824 0.555570 0.337652
v 0.926421 0.384613 -0.031479
v 0.804871 0.000000 -0.593449
v 0.111616 0.831470 0.544243
v 0.978915 0.195090 -0.060536
v 0.905182 0.000000 -0.425024
v 0.354590 0.709697 0.612418
v 0.628086 0.557157 0.548820
v 0.867948 0.384613 0.325443
v 0.970707 0.000000 -0.240265
v 0.444181 0.555570 0.702883
v 0.957513 0.195923 0.229610
v 0.998929 0.000000 -0.046273
v -0.170506 0.930628 0.335231
v -0.109714 0.833363 0.549093
v 0.093236 0.709697 0.701496
v 0.217326 0.557157 0.805274
v 0.677338 0.384613 0.632820
v 0.988762 0.000000 0.149498
v -0.200705 0.982180 0.042843
v 0.796759 0.195923 0.578556
v 0.940598 0.000000 0.339523
v -0.329620 0.925199 0.191934
v -0.352285 0.832157 0.431749
v -0.182312 0.709697 0.683778
v -0.107381 0.557157 0.827143
v 0.383609 0.384613 0.843855
v 0.594190 0.195090 0.780306
v 0.856287 0.000000 0.516500
v 0.739069 0.000000 0.673629
v -0.490692 0.832157 0.264070
v -0.430105 0.709697 0.561961
v 0.031479 0.384613 0.926421
v 0.341052 0.195923 0.923707
v 0.593450 0.000000 0.804871
v -0.554396 0.832157 0.056189
v -0.415742 0.557157 0.723087
v 0.060536 0.195090 0.978915
v 0.425024 0.000000 0.905182
v -0.374963 0.930628 -0.029240
v -0.612418 0.709697 0.354590
v -0.325443 0.384613 0.867948
v -0.229610 0.195923 0.957513
v 0.240265 0.000000 0.970707
v -0.533697 0.832157 -0.160246
v -0.660809 0.557157 0.508948
v 0.046273 0.000000 0.998928
v -0.701496 0.709697 0.093236
v -0.776033 0.555570 0.298521
v -0.632820 0.384613 0.677338
v -0.493522 0.195090 0.847570
v -0.149497 0.000000 0.988762
v -0.097977 0.981581 -0.177838
v -0.683778 0.709697 -0.182312
v -0.649392 0.195090 0.735003
v -0.339522 0.000000 0.940597
v -0.244463 0.930628 -0.285814
v -0.431749 0.832157 -0.352285
v -0.832199 0.557157 0.056049
v -0.843855 0.384613 0.383609
v -0.516500 0.000000 0.856286
v -0.561961 0.709697 -0.430105
v -0.839422 0.195923 0.514705
v -0.673628 0.000000 0.739069
v -0.051183 0.925199 -0.377979
v -0.264070 0.832157 -0.490692
v -0.790300 0.557157 -0.266686
v -0.926421 0.384613 0.031479
v -0.948295 0.195090 0.250349
v -0.804870 0.000000 0.593449
v -0.628086 0.557157 -0.548820
v -0.978915 0.195090 0.060536
v -0.905181 0.000000 0.425024
v 0.170505 0.930628 -0.335231
v -0.056189 0.832157 -0.554395
v -0.354590 0.709697 -0.612418
v -0.867948 0.384613 -0.325443
v -0.970706 0.000000 0.240265
v -0.677337 0.384613 -0.632819
v -0.957513 0.195923 -0.229609
v -0.998927 0.000000 0.046273
v -0.093235 0.709696 -0.701497
vn 0.3190 0.6076 -0.7273
vn -0.3825 0.4165 -0.8248
vn -0.8588 0.0504 -0.5099
vn -0.8616 0.4989 -0.0936
vn 0.1483 0.7547 -0.6392
vn -0.1370 0.5432 -0.8283
vn -0.7322 0.1260 -0.6694
vn -0.8231 0.5013 -0.2668
vn 0.1715 0.9794 -0.1063
vn -0.3893 0.4385 -0.8100
vn -0.6965 0.6205 -0.3603
vn 0.5012 0.8531 -0.1449
vn 0.4702 0.7820 -0.4093
vn 0.5100 0.4898 -0.7071
vn 0.1751 0.4158 -0.8925
vn -0.0889 0.1641 -0.9824
vn -0.4977 0.0579 -0.8654
vn -0.7088 0.3460 -0.6147
vn -0.2650 0.1713 -0.9489
vn -0.5430 0.4989 -0.6754
vn 0.7242 0.6689 -0.1677
vn 0.6311 0.6039 -0.4869
vn 0.5025 0.3814 -0.7759
vn 0.1768 0.3775 -0.9090
vn -0.0401 0.0359 -0.9986
vn -0.4008 0.4989 -0.7684
vn -0.0013 1.0000 0.0002
vn 0.3736 0.9263 0.0492
vn 0.1498 0.1260 -0.9807
vn -0.2354 0.5014 -0.8326
vn 0.1489 0.9732 0.1750
vn 0.7578 0.6375 0.1394
vn 0.7658 0.6071 -0.2119
vn 0.7592 0.3811 -0.5276
vn 0.4650 0.4707 -0.7498
vn -0.0874 0.6205 -0.7793
vn 0.3105 0.9077 0.2822
vn 0.4531 0.0335 -0.8908
vn 0.1259 0.3489 -0.9287
vn 0.6524 0.6086 0.4517
vn 0.7652 0.6396 0.0735
vn 0.9031 0.3797 -0.2006
vn 0.7032 0.4824 -0.5223
vn 0.2175 0.6205 -0.7534
vn 0.3335 0.7347 0.5908
vn 0.6398 0.7299 0.2407
vn 0.9232 0.2558 -0.2869
vn 0.7550 0.0438 -0.6543
vn 0.4717 0.3489 -0.8098
vn 0.8261 0.5549 0.0983
vn 0.9210 0.1884 -0.3410
vn 0.4892 0.6205 -0.6129
vn -0.3750 0.7692 0.5173
vn 0.0652 0.8835 0.4638
vn 0.5736 0.6554 0.4914
vn 0.8564 0.2645 0.4435
vn 0.9811 0.1927 0.0167
vn 0.7412 0.3460 -0.5753
vn 0.0978 0.7829 0.6145
vn 0.9882 0.1426 -0.0563
vn 0.7707 0.5014 -0.3933
vn 0.3613 0.5888 0.7230
vn 0.6666 0.4092 0.6231
vn 0.8291 0.4693 0.3040
vn 0.7473 0.6205 -0.2378
vn 0.4436 0.5432 0.7128
vn 0.9621 0.0335 0.2706
vn 0.9354 0.3489 -0.0577
vn -0.2089 0.9078 0.3638
vn -0.2128 0.7082 0.6732
vn 0.0846 0.7180 0.6909
vn 0.1951 0.5094 0.8381
vn 0.6617 0.4254 0.6175
vn 0.7814 0.6205 0.0663
vn -0.1902 0.9805 0.0500
vn 0.8010 0.0673 0.5949
vn 0.8901 0.3460 0.2967
vn -0.4987 0.8410 0.2099
vn -0.5177 0.6656 0.5375
vn -0.1840 0.7357 0.6518
vn -0.1323 0.5148 0.8470
vn 0.3664 0.2947 0.8825
vn 0.5852 0.0208 0.8106
vn 0.7552 0.5014 0.4223
vn 0.6128 0.6205 0.4892
vn -0.6735 0.6746 0.3020
vn -0.4194 0.7357 0.5318
vn -0.0057 0.2012 0.9795
vn 0.3316 0.1735 0.9273
vn 0.5753 0.3460 0.7412
vn -0.7631 0.6463 0.0036
vn -0.4464 0.5148 0.7319
vn 0.0563 0.1426 0.9882
vn 0.3933 0.5014 0.7707
vn -0.4317 0.8976 -0.0893
vn -0.5910 0.7357 0.3308
vn -0.3274 0.3809 0.8647
vn -0.2545 0.0574 0.9654
vn 0.2378 0.6205 0.7473
vn -0.6898 0.6746 -0.2627
vn -0.6753 0.5291 0.5138
vn 0.0665 0.3460 0.9359
vn -0.7312 0.6795 0.0609
vn -0.9191 0.2645 0.2919
vn -0.6785 0.2957 0.6725
vn -0.5099 0.0504 0.8588
vn -0.0936 0.4989 0.8616
vn -0.0352 0.9531 -0.3007
vn -0.7531 0.6074 -0.2527
vn -0.6694 0.1260 0.7322
vn -0.2668 0.5013 0.8231
vn -0.2469 0.9141 -0.3218
vn -0.5474 0.6435 -0.5350
vn -0.9275 0.3737 0.0099
vn -0.8032 0.4707 0.3651
vn -0.3603 0.6205 0.6965
vn -0.6016 0.6071 -0.5191
vn -0.8626 0.0574 0.5026
vn -0.6147 0.3460 0.7088
vn 0.0051 0.8613 -0.5081
vn -0.2958 0.6629 -0.6878
vn -0.8605 0.3811 -0.3381
vn -0.9217 0.3878 0.0046
vn -0.9678 0.0504 0.2467
vn -0.6754 0.4989 0.5430
vn -0.6656 0.3811 -0.6417
vn -0.9910 0.1260 0.0444
vn -0.7707 0.5014 0.3933
vn 0.2123 0.9064 -0.3652
vn -0.0213 0.6746 -0.7378
vn -0.3572 0.6071 -0.7098
vn -0.8261 0.4707 -0.3098
vn -0.7473 0.6205 0.2378
vn -0.6578 0.3866 -0.6464
vn -0.9654 0.0574 -0.2545
vn -0.9359 0.3460 0.0665
vn -0.0559 0.6081 -0.7919
vt 0.291054 0.778051
vt 0.402175 0.763924
vt 0.478630 0.784294
vt 0.195918 0.781787
vt 0.409438 0.844440
vt 0.047910 0.723937
vt 0.256914 0.833595
vt 0.102039 0.801152
vt 0.542824 0.648875
vt 0.542624 0.588500
vt 0.592794 0.540224
vt 0.481872 0.716958
vt 0.612105 0.610894
vt 0.566301 0.708251
vt 0.565582 0.767527
vt 0.363760 0.903036
vt 0.171046 0.865478
vt 0.544414 0.527269
vt 0.541246 0.456182
vt 0.620194 0.674208
vt 0.512264 0.838497
vt 0.250245 0.944569
vt 0.499747 0.492160
vt 0.662827 0.724710
vt 0.618478 0.828552
vt 0.482676 0.911882
vt 0.338762 0.976252
vt 0.603945 0.478878
vt 0.650088 0.544035
vt 0.669848 0.632658
vt 0.564487 0.907541
vt 0.433588 0.996099
vt 0.739418 0.650339
vt 0.742253 0.767113
vt 0.640968 0.886702
vt 0.526911 0.995949
vt 0.658770 0.482035
vt 0.711274 0.558268
vt 0.585447 0.430183
vt 0.756572 0.837947
vt 0.616688 0.975594
vt 0.818973 0.655715
vt 0.722036 0.955257
vt 0.493875 0.439119
vt 0.642084 0.419778
vt 0.721163 0.470277
vt 0.777987 0.546021
vt 0.534208 0.392286
vt 0.869018 0.712968
vt 0.796187 0.898466
vt 0.835261 0.560373
vt 0.884163 0.835140
vt 0.590123 0.355400
vt 0.707395 0.408280
vt 0.779807 0.432929
vt 0.666918 0.351428
vt 0.848188 0.455325
vt 0.919827 0.559071
vt 0.927961 0.755654
vt 0.980293 0.665588
vt 0.741959 0.360156
vt 0.601084 0.294898
vt 0.700687 0.288008
vt 0.817027 0.320191
vt 0.911260 0.442645
vt 0.995784 0.575344
vt 0.444866 0.476070
vt 0.454077 0.393994
vt 0.531729 0.330067
vt 0.888022 0.321296
vt 0.994086 0.484426
vt 0.512995 0.264678
vt 0.632713 0.238680
vt 0.724209 0.218627
vt 0.995284 0.378603
vt 0.545801 0.212982
vt 0.790065 0.186337
vt 0.955547 0.294796
vt 0.597798 0.165367
vt 0.912316 0.195999
vt 0.465285 0.328378
vt 0.409037 0.434285
vt 0.393953 0.365304
vt 0.420767 0.279001
vt 0.429938 0.217130
vt 0.682082 0.123822
vt 0.842815 0.125865
vt 0.461865 0.153444
vt 0.566311 0.080913
vt 0.763741 0.078770
vt 0.395603 0.496418
vt 0.355291 0.414576
vt 0.344169 0.323493
vt 0.324200 0.260169
vt 0.673808 0.021593
vt 0.471211 0.538458
vt 0.320510 0.184565
vt 0.445055 0.089517
vt 0.580792 0.005022
vt 0.191754 0.684455
vt 0.118325 0.687445
vt 0.091164 0.564499
vt 0.340259 0.476869
vt 0.296991 0.397679
vt 0.020078 0.338989
vt 0.084236 0.485034
vt 0.253683 0.351932
vt 0.318313 0.113197
vt 0.485568 0.006435
vt 0.003900 0.432198
vt 0.372877 0.003901
vt 0.430917 0.569160
vt 0.349210 0.539434
vt 0.284130 0.482027
vt 0.217294 0.292058
vt 0.234664 0.428815
vt 0.008858 0.635315
vt 0.218638 0.193081
vt 0.279940 0.043069
vt 0.165819 0.255055
vt 0.200340 0.098165
vt 0.376798 0.593858
vt 0.293679 0.563545
vt 0.218397 0.507896
vt 0.149451 0.413899
vt 0.096052 0.362590
vt 0.135404 0.167882
vt 0.481919 0.596521
vt 0.423051 0.634311
vt 0.334655 0.638246
vt 0.246622 0.615174
vt 0.154113 0.552769
vt 0.055861 0.247576
vt 0.480700 0.653746
vt 0.399041 0.692192
vt 0.306172 0.704832
vt 0.007830 0.525415
s 1
usemtl Material.001
f 134/1/134 2/2/2 6/3/6
f 3/4/3 134/1/134 10/5/10
f 4/6/4 7/7/7 8/8/8
f 1/9/1 129/10/129 12/11/12
f 137/12/137 1/9/1 13/13/13
f 2/2/2 137/12/137 5/14/5
f 10/5/10 6/3/6 15/15/15
f 8/8/8 17/16/17 11/17/11
f 12/11/12 9/18/9 31/19/31
f 15/15/15 5/14/5 14/20/14
f 17/16/17 10/5/10 16/21/16
f 11/17/11 17/16/17 18/22/18
f 9/18/9 27/23/27 31/19/31
f 16/21/16 15/15/15 23/24/23
f 17/16/17 16/21/16 24/25/24
f 18/22/18 19/26/19 20/27/20
f 13/13/13 12/11/12 28/28/28
f 14/20/14 13/13/13 21/29/21
f 15/15/15 14/20/14 22/30/22
f 20/27/20 25/31/25 26/32/26
f 24/25/24 23/24/23 34/33/34
f 25/31/25 24/25/24 35/34/35
f 26/32/26 29/35/29 30/36/30
f 22/30/22 21/29/21 32/37/32
f 23/24/23 22/30/22 33/38/33
f 32/37/32 28/28/28 37/39/37
f 30/36/30 38/40/38 36/41/36
f 38/40/38 35/34/35 43/42/43
f 36/41/36 38/40/38 39/43/39
f 31/19/31 27/23/27 53/44/53
f 37/39/37 31/19/31 53/44/53
f 33/38/33 32/37/32 40/45/40
f 34/33/34 33/38/33 41/46/41
f 35/34/35 34/33/34 42/47/42
f 40/45/40 37/39/37 54/48/54
f 39/43/39 48/49/48 44/50/44
f 48/49/48 43/42/43 47/51/47
f 44/50/44 48/49/48 49/52/49
f 41/46/41 40/45/40 45/53/45
f 42/47/42 41/46/41 46/54/46
f 43/42/43 42/47/42 50/55/50
f 50/55/50 46/54/46 55/56/55
f 47/51/47 50/55/50 57/57/57
f 48/49/48 57/57/57 51/58/51
f 49/52/49 51/58/51 52/59/52
f 52/59/52 51/58/51 58/60/58
f 50/55/50 55/56/55 56/61/56
f 56/61/56 62/62/62 63/63/63
f 57/57/57 63/63/63 64/64/64
f 51/58/51 64/64/64 60/65/60
f 58/60/58 60/65/60 61/66/61
f 53/44/53 27/23/27 75/67/75
f 54/48/54 53/44/53 75/67/75
f 45/53/45 54/48/54 69/68/69
f 55/56/55 59/69/59 62/62/62
f 60/65/60 64/64/64 67/70/67
f 61/66/61 67/70/67 65/71/65
f 63/63/63 71/72/71 66/73/66
f 64/64/64 66/73/66 73/74/73
f 65/71/65 67/70/67 68/75/68
f 66/73/66 71/72/71 72/76/72
f 67/70/67 73/74/73 76/77/76
f 68/75/68 76/77/76 74/78/74
f 73/74/73 72/76/72 82/79/82
f 74/78/74 76/77/76 77/80/77
f 70/81/70 69/68/69 78/82/78
f 71/72/71 79/83/79 80/84/80
f 72/76/72 80/84/80 81/85/81
f 76/77/76 82/79/82 83/86/83
f 77/80/77 83/86/83 84/87/84
f 82/79/82 81/85/81 88/88/88
f 83/86/83 88/88/88 89/89/89
f 84/87/84 89/89/89 85/90/85
f 79/83/79 78/82/78 95/91/95
f 80/84/80 79/83/79 86/92/86
f 81/85/81 87/93/87 92/94/92
f 85/90/85 89/89/89 90/95/90
f 75/67/75 27/23/27 108/96/108
f 95/91/95 75/67/75 108/96/108
f 89/89/89 97/97/97 93/98/93
f 90/95/90 93/98/93 94/99/94
f 132/100/132 135/101/135 127/102/127
f 87/93/87 91/103/91 96/104/96
f 127/102/127 125/105/125 124/106/124
f 13/13/13 5/14/5 137/12/137
f 88/88/88 92/94/92 97/97/97
f 2/2/2 134/1/134 132/100/132
f 97/97/97 92/94/92 101/107/101
f 5/14/5 6/3/6 2/2/2
f 93/98/93 97/97/97 98/108/98
f 94/99/94 98/108/98 99/109/99
f 135/101/135 128/110/128 127/102/127
f 99/109/99 98/108/98 102/111/102
f 31/19/31 28/28/28 12/11/12
f 134/1/134 3/4/3 135/101/135
f 91/103/91 95/91/95 112/112/112
f 28/28/28 21/29/21 13/13/13
f 96/104/96 100/113/100 103/114/103
f 5/14/5 15/15/15 6/3/6
f 97/97/97 101/107/101 105/115/105
f 13/13/13 14/20/14 5/14/5
f 6/3/6 10/5/10 134/1/134
f 101/107/101 103/114/103 104/116/104
f 3/4/3 136/117/136 135/101/135
f 98/108/98 105/115/105 106/118/106
f 102/111/102 106/118/106 107/119/107
f 10/5/10 7/7/7 3/4/3
f 21/29/21 22/30/22 14/20/14
f 107/119/107 110/120/110 111/121/111
f 22/30/22 23/24/23 15/15/15
f 28/28/28 32/37/32 21/29/21
f 7/7/7 4/6/4 3/4/3
f 103/114/103 100/113/100 113/122/113
f 10/5/10 17/16/17 7/7/7
f 104/116/104 109/123/109 114/124/114
f 31/19/31 37/39/37 28/28/28
f 105/115/105 114/124/114 115/125/115
f 15/15/15 16/21/16 10/5/10
f 106/118/106 115/125/115 110/120/110
f 32/37/32 33/38/33 22/30/22
f 23/24/23 24/25/24 16/21/16
f 110/120/110 115/125/115 118/126/118
f 17/16/17 8/8/8 7/7/7
f 111/121/111 118/126/118 116/127/116
f 108/96/108 27/23/27 9/18/9
f 112/112/112 108/96/108 9/18/9
f 53/44/53 54/48/54 37/39/37
f 24/25/24 19/26/19 17/16/17
f 113/122/113 112/112/112 120/128/120
f 109/123/109 113/122/113 121/129/121
f 114/124/114 117/130/117 122/131/122
f 33/38/33 34/33/34 23/24/23
f 115/125/115 122/131/122 123/132/123
f 37/39/37 40/45/40 32/37/32
f 116/127/116 118/126/118 119/133/119
f 40/45/40 41/46/41 33/38/33
f 118/126/118 123/132/123 124/106/124
f 19/26/19 18/22/18 17/16/17
f 119/133/119 124/106/124 125/105/125
f 34/33/34 35/34/35 24/25/24
f 24/25/24 25/31/25 19/26/19
f 35/34/35 29/35/29 25/31/25
f 25/31/25 20/27/20 19/26/19
f 41/46/41 42/47/42 34/33/34
f 121/129/121 120/128/120 129/10/129
f 54/48/54 45/53/45 40/45/40
f 117/130/117 121/129/121 130/134/130
f 35/34/35 38/40/38 29/35/29
f 122/131/122 131/135/131 126/136/126
f 123/132/123 126/136/126 132/100/132
f 42/47/42 43/42/43 35/34/35
f 124/106/124 132/100/132 127/102/127
f 45/53/45 46/54/46 41/46/41
f 125/105/125 127/102/127 128/110/128
f 29/35/29 26/32/26 25/31/25
f 46/54/46 50/55/50 42/47/42
f 128/110/128 135/101/135 133/137/133
f 38/40/38 30/36/30 29/35/29
f 75/67/75 69/68/69 54/48/54
f 45/53/45 55/56/55 46/54/46
f 131/135/131 130/134/130 1/9/1
f 69/68/69 59/69/59 45/53/45
f 126/136/126 137/12/137 2/2/2
f 43/42/43 48/49/48 38/40/38
f 132/100/132 126/136/126 2/2/2
f 135/101/135 132/100/132 134/1/134
f 50/55/50 47/51/47 43/42/43
f 133/137/133 135/101/135 136/117/136
f 136/117/136 3/4/3 4/6/4
f 69/68/69 70/81/70 59/69/59
f 59/69/59 55/56/55 45/53/45
f 48/49/48 39/43/39 38/40/38
f 48/49/48 47/51/47 57/57/57
f 49/52/49 48/49/48 51/58/51
f 51/58/51 57/57/57 64/64/64
f 58/60/58 51/58/51 60/65/60
f 61/66/61 60/65/60 67/70/67
f 67/70/67 64/64/64 73/74/73
f 68/75/68 67/70/67 76/77/76
f 76/77/76 73/74/73 82/79/82
f 77/80/77 76/77/76 83/86/83
f 83/86/83 82/79/82 88/88/88
f 84/87/84 83/86/83 89/89/89
f 89/89/89 88/88/88 97/97/97
f 90/95/90 89/89/89 93/98/93
f 94/99/94 93/98/93 98/108/98
f 98/108/98 97/97/97 105/115/105
f 102/111/102 98/108/98 106/118/106
f 107/119/107 106/118/106 110/120/110
f 106/118/106 105/115/105 115/125/115
f 111/121/111 110/120/110 118/126/118
f 118/126/118 115/125/115 123/132/123
f 119/133/119 118/126/118 124/106/124
f 124/106/124 123/132/123 132/100/132
f 56/61/56 55/56/55 62/62/62
f 63/63/63 62/62/62 71/72/71
f 72/76/72 71/72/71 80/84/80
f 81/85/81 80/84/80 87/93/87
f 92/94/92 87/93/87 96/104/96
f 101/107/101 96/104/96 103/114/103
f 104/116/104 103/114/103 109/123/109
f 114/124/114 109/123/109 117/130/117
f 122/131/122 117/130/117 131/135/131
f 126/136/126 131/135/131 137/12/137
f 100/113/100 96/104/96 91/103/91
f 92/94/92 96/104/96 101/107/101
f 126/136/126 123/132/123 122/131/122
f 122/131/122 115/125/115 114/124/114
f 114/124/114 105/115/105 104/116/104
f 104/116/104 105/115/105 101/107/101
f 92/94/92 88/88/88 81/85/81
f 81/85/81 82/79/82 72/76/72
f 72/76/72 73/74/73 66/73/66
f 66/73/66 64/64/64 63/63/63
f 63/63/63 57/57/57 56/61/56
f 56/61/56 57/57/57 50/55/50
f 70/81/70 62/62/62 59/69/59
f 70/81/70 71/72/71 62/62/62
f 75/67/75 78/82/78 69/68/69
f 79/83/79 71/72/71 70/81/70
f 75/67/75 95/91/95 78/82/78
f 78/82/78 79/83/79 70/81/70
f 95/91/95 86/92/86 79/83/79
f 86/92/86 87/93/87 80/84/80
f 112/112/112 100/113/100 91/103/91
f 91/103/91 87/93/87 86/92/86
f 108/96/108 112/112/112 95/91/95
f 95/91/95 91/103/91 86/92/86
f 112/112/112 113/122/113 100/113/100
f 9/18/9 120/128/120 112/112/112
f 113/122/113 109/123/109 103/114/103
f 120/128/120 121/129/121 113/122/113
f 121/129/121 117/130/117 109/123/109
f 9/18/9 129/10/129 120/128/120
f 129/10/129 130/134/130 121/129/121
f 130/134/130 131/135/131 117/130/117
f 129/10/129 1/9/1 130/134/130
f 1/9/1 137/12/137 131/135/131
f 9/18/9 12/11/12 129/10/129
f 12/11/12 13/13/13 1/9/1
