# Blender 4.5.1 LTS
# www.blender.org
mtllib ViCow.mtl
o Cylinder
v -3.295661 0.709073 -1.099559
v 0.768807 0.701819 -1.052327
v -3.317734 0.197755 -0.920272
v 0.559933 -0.109717 -0.968680
v -3.360406 2.211692 -0.743815
v -0.195516 2.125683 -0.528043
v 1.755929 0.834771 -0.426860
v 1.818891 1.446266 -0.693529
v 1.677414 2.043359 -0.414421
v -3.534468 0.197755 0.000000
v 0.545268 -0.099574 -0.000001
v 1.739963 0.801863 -0.000001
v -3.503060 2.527276 0.000000
v -0.210181 2.312688 -0.000000
v 1.788908 2.142460 -0.000000
v -0.132266 0.700681 -1.263925
v -0.075943 -0.117675 -0.876588
v -0.917811 2.014299 -0.574650
v -0.086202 -0.107142 0.000015
v -0.929356 2.199146 -0.000000
v -2.719591 0.179108 -0.862598
v -2.875562 2.329720 -0.746411
v -2.722681 0.181245 -0.000000
v -2.878652 2.508720 0.000000
v -2.501112 0.697596 -1.271484
v 0.423679 -2.032578 -0.657734
v 0.429582 -2.036661 -0.919820
v 0.088184 -2.039865 -0.921612
v 0.083536 -2.036650 -0.659512
v -2.823315 -1.998725 -1.110281
v -3.292531 -2.003128 -1.112743
v -3.292531 -2.003128 -0.748980
v -2.825041 -1.997531 -0.746537
v 2.621945 0.584395 -0.195003
v 2.845114 0.833304 -0.340025
v 2.613295 0.589652 -0.000001
v 3.024547 1.068720 -0.000001
v -1.698048 0.699138 -1.395350
v -1.616634 -0.075401 -1.003617
v -1.896686 2.089106 -0.683678
v -1.669114 -0.447445 -0.000000
v -1.904004 2.271029 0.000000
v 1.960063 1.933721 -0.630384
v 2.051123 2.068820 -0.000000
v -3.331811 1.690371 -1.082867
v 0.617486 1.505043 -0.898201
v 1.808886 1.786909 -0.693746
v -0.409748 1.505157 -1.090849
v -2.458842 1.565877 -1.085003
v 2.952112 0.967983 -0.309734
v -1.811408 1.505311 -1.087926
v 1.944062 1.757774 -0.630027
v 2.125926 1.882685 -1.143740
v 2.031942 1.703423 -0.866349
v 2.058216 2.015556 -0.700776
v 1.954577 2.081135 -0.744913
v 1.932113 1.742241 -0.919136
v -3.800799 1.771540 0.000000
v -3.602181 0.709073 0.000000
v 2.993686 0.690391 -0.000001
v 3.102485 0.817131 -0.000001
v -3.647772 2.311902 0.000000
v -3.601250 2.321421 -0.101096
v -3.816619 2.427767 0.000000
v -3.440911 2.511214 -0.149042
v -3.708313 2.293555 0.000000
v -3.719234 2.292965 -0.099259
v -3.784856 2.391595 -0.129763
v -4.016227 1.792482 0.000000
v -3.968146 1.790120 -0.119707
v -3.851651 1.775197 -0.089203
v -3.844475 1.776860 0.000000
v -4.433592 0.484866 0.000000
v -4.386794 0.496150 -0.132788
v -4.268958 0.508340 -0.059878
v -4.264399 0.518281 0.000000
v -3.295660 0.709073 1.099559
v 0.768807 0.701819 1.052327
v -3.317734 0.197755 0.920272
v 0.559933 -0.109717 0.968679
v -3.360406 2.211691 0.743815
v -0.195515 2.125683 0.528043
v 1.755929 0.834771 0.426859
v 1.818891 1.446266 0.693528
v 1.677414 2.043358 0.414421
v -0.132265 0.700681 1.263925
v -0.077228 -0.120223 0.876571
v -0.917811 2.014299 0.574650
v -2.719591 0.179108 0.862598
v -2.875561 2.329720 0.746412
v -2.501112 0.697595 1.271484
v 0.423679 -2.032578 0.657733
v 0.429583 -2.036662 0.919818
v 0.088184 -2.039865 0.921610
v 0.083536 -2.036650 0.659511
v -2.823315 -1.998725 1.110280
v -3.292531 -2.003128 1.112743
v -3.292531 -2.003128 0.748979
v -2.825041 -1.997531 0.746536
v 2.621945 0.584395 0.195002
v 2.845114 0.833304 0.340023
v -1.698048 0.699138 1.395350
v -1.616633 -0.075401 1.003616
v -1.896686 2.089105 0.683678
v 1.960063 1.933721 0.630383
v -3.331811 1.690370 1.082868
v 0.617487 1.505043 0.898201
v 1.808886 1.786908 0.693745
v -0.409748 1.505157 1.090849
v -2.458842 1.565877 1.085004
v 2.952112 0.967983 0.309732
v -1.811408 1.505311 1.087926
v 1.944062 1.757774 0.630026
v 2.125927 1.882684 1.143739
v 2.031942 1.703423 0.866349
v 2.058216 2.015556 0.700775
v 1.954577 2.081135 0.744912
v 1.932114 1.742241 0.919135
v -3.601250 2.321421 0.101096
v -3.440911 2.511214 0.149043
v -3.719234 2.292965 0.099259
v -3.784856 2.391595 0.129764
v -3.968146 1.790120 0.119708
v -3.851651 1.775197 0.089203
v -4.386794 0.496150 0.132789
v -4.268958 0.508340 0.059878
vn 0.0760 -0.2834 -0.9560
vn 0.6111 -0.7916 0.0005
vn -0.1360 0.9378 -0.3195
vn 0.1987 0.2461 -0.9487
vn -0.9383 -0.1051 -0.3295
vn 0.5393 -0.2970 -0.7880
vn 0.0406 0.6225 -0.7816
vn 0.0022 -0.3228 0.9465
vn 0.0708 0.9524 -0.2964
vn 0.1008 -0.9776 -0.1846
vn 0.0412 0.2948 -0.9547
vn 0.0873 0.9567 -0.2776
vn 0.0691 -0.4335 -0.8985
vn -0.0820 -0.4798 -0.8736
vn 0.0296 0.9950 -0.0949
vn -0.0944 0.1090 -0.9895
vn 0.0573 0.0988 -0.9935
vn 0.0106 -0.9998 0.0141
vn -0.9964 -0.0842 -0.0120
vn 0.9975 -0.0679 0.0175
vn -0.0920 -0.0018 -0.9958
vn 0.0107 -0.9999 0.0017
vn -0.0046 -0.3233 0.9463
vn -0.9858 -0.0242 -0.1664
vn 0.9988 -0.0482 0.0041
vn 0.4137 -0.8497 -0.3268
vn 0.3306 0.0263 -0.9434
vn 0.6666 0.6488 -0.3669
vn -0.1841 -0.5033 -0.8443
vn 0.2382 0.9421 -0.2360
vn -0.0723 0.2793 -0.9575
vn -0.3827 -0.9040 -0.1906
vn 0.2167 0.9428 -0.2533
vn 0.9607 -0.1888 0.2035
vn 0.4285 0.0120 -0.9035
vn 0.0704 -0.4495 -0.8905
vn 0.1265 0.5146 -0.8481
vn -0.0009 0.4662 -0.8847
vn 0.0542 0.6603 -0.7491
vn 0.1733 0.1553 -0.9726
vn 0.0606 0.6590 -0.7497
vn 0.5742 0.8042 -0.1535
vn -0.0333 -0.8342 -0.5504
vn -0.8071 0.3114 -0.5017
vn -0.7758 0.2863 -0.5623
vn -0.3062 -0.9498 0.0637
vn 0.5337 0.5311 0.6581
vn 0.8398 -0.2379 0.4880
vn -0.2501 -0.9668 -0.0529
vn -0.8910 0.2292 -0.3919
vn -0.9644 -0.0868 -0.2498
vn 0.6796 -0.4986 -0.5381
vn 0.9099 0.2819 -0.3045
vn -0.0000 -0.0000 1.0000
vn -0.7528 0.5413 -0.3745
vn -0.8880 0.2515 -0.3850
vn 0.2536 -0.9673 0.0020
vn -0.0563 0.9392 -0.3386
vn 0.0445 -0.2758 -0.9602
vn -0.3112 0.9096 -0.2752
vn -0.9020 0.2766 -0.3314
vn 0.9638 -0.2511 -0.0895
vn 0.2644 -0.0918 -0.9600
vn 0.1504 -0.9883 0.0261
vn -0.8990 0.2906 -0.3276
vn 0.3987 -0.1359 -0.9070
vn 0.9478 -0.3148 -0.0501
vn 0.7012 0.5848 -0.4079
vn 0.0764 -0.2830 0.9561
vn 0.6111 -0.7916 -0.0005
vn -0.1360 0.9378 0.3195
vn 0.1987 0.2461 0.9487
vn -0.9383 -0.1051 0.3295
vn 0.5393 -0.2970 0.7880
vn 0.0406 0.6225 0.7816
vn 0.0021 -0.3228 -0.9465
vn 0.0708 0.9524 0.2964
vn 0.1000 -0.9779 0.1834
vn 0.0412 0.2948 0.9547
vn 0.0873 0.9567 0.2776
vn 0.0688 -0.4330 0.8988
vn -0.0820 -0.4798 0.8736
vn 0.0296 0.9950 0.0949
vn -0.0944 0.1090 0.9895
vn 0.0573 0.0988 0.9935
vn 0.0106 -0.9998 -0.0141
vn -0.9963 -0.0848 0.0107
vn 0.9975 -0.0679 -0.0175
vn -0.0919 -0.0018 0.9958
vn 0.0107 -0.9999 -0.0017
vn -0.0046 -0.3233 -0.9463
vn -0.9858 -0.0242 0.1664
vn 0.9988 -0.0482 -0.0041
vn 0.4137 -0.8497 0.3268
vn 0.3306 0.0263 0.9434
vn 0.6666 0.6488 0.3669
vn -0.1841 -0.5033 0.8443
vn 0.2382 0.9421 0.2360
vn -0.0723 0.2793 0.9575
vn -0.3827 -0.9040 0.1906
vn 0.2167 0.9428 0.2533
vn 0.9607 -0.1888 -0.2035
vn 0.4285 0.0120 0.9035
vn 0.0704 -0.4495 0.8905
vn 0.1265 0.5146 0.8481
vn -0.0009 0.4662 0.8847
vn 0.0542 0.6603 0.7491
vn 0.1733 0.1553 0.9726
vn 0.0606 0.6590 0.7497
vn 0.5742 0.8042 0.1535
vn -0.0333 -0.8342 0.5504
vn -0.8071 0.3114 0.5017
vn -0.7758 0.2863 0.5623
vn -0.3062 -0.9498 -0.0637
vn 0.5337 0.5311 -0.6581
vn 0.8398 -0.2379 -0.4880
vn -0.2501 -0.9668 0.0529
vn -0.8910 0.2292 0.3919
vn -0.9644 -0.0868 0.2498
vn 0.6796 -0.4986 0.5381
vn 0.9099 0.2819 0.3045
vn -0.7528 0.5413 0.3745
vn -0.8880 0.2515 0.3850
vn 0.2536 -0.9673 -0.0020
vn -0.0563 0.9392 0.3386
vn 0.0445 -0.2758 0.9602
vn -0.3112 0.9096 0.2752
vn -0.9020 0.2766 0.3314
vn 0.9638 -0.2511 0.0895
vn 0.2644 -0.0918 0.9600
vn 0.1504 -0.9883 -0.0261
vn -0.8990 0.2906 0.3276
vn 0.3987 -0.1359 0.9070
vn 0.9478 -0.3148 0.0501
vn 0.7012 0.5848 0.4079
vt 0.775994 0.764683
vt 0.802928 0.824347
vt 0.740565 0.837099
vt 0.713508 0.794033
vt 0.752607 0.906107
vt 0.851403 0.896627
vt 0.837706 0.924836
vt 0.909162 0.671418
vt 0.923034 0.715137
vt 0.885535 0.726319
vt 0.868107 0.680506
vt 0.826684 0.727643
vt 0.853834 0.793125
vt 0.729093 0.538098
vt 0.740467 0.459412
vt 0.818264 0.456790
vt 0.796314 0.532287
vt 0.887689 0.870309
vt 0.927552 0.840427
vt 0.906322 0.857174
vt 0.757286 0.949434
vt 0.626618 0.947071
vt 0.625741 0.923619
vt 0.958110 0.842027
vt 0.703848 0.669662
vt 0.655983 0.770912
vt 0.637512 0.680103
vt 0.807094 0.631383
vt 0.754348 0.651006
vt 0.901915 0.607525
vt 0.853241 0.614850
vt 0.733292 0.593246
vt 0.676323 0.574079
vt 0.691923 0.527457
vt 0.881844 0.494552
vt 0.895864 0.536826
vt 0.872343 0.498892
vt 0.798079 0.588733
vt 0.534740 0.495578
vt 0.545256 0.467646
vt 0.597760 0.913833
vt 0.619849 0.907672
vt 0.602600 0.930774
vt 0.607460 0.890623
vt 0.596833 0.878556
vt 0.499959 0.492537
vt 0.528592 0.518059
vt 0.498097 0.516247
vt 0.705656 0.402901
vt 0.708805 0.459433
vt 0.554870 0.446387
vt 0.552862 0.414481
vt 0.622074 0.614000
vt 0.886066 0.957436
vt 0.908254 0.952536
vt 0.910310 0.979453
vt 0.877818 0.967672
vt 0.911636 0.867901
vt 0.919667 0.952757
vt 0.961147 0.864296
vt 0.941221 0.958090
vt 0.847274 0.548952
vt 0.918139 0.859558
vt 0.962976 0.496108
vt 0.960781 0.518742
vt 0.935630 0.510376
vt 0.834635 0.519265
vt 0.959747 0.489115
vt 0.927746 0.484851
vt 0.935674 0.486488
vt 0.946577 0.471253
vt 0.976707 0.466169
vt 0.936227 0.466687
vt 0.972562 0.494817
vt 0.976707 0.507165
vt 0.860497 0.480329
vt 0.924818 0.976003
vt 0.851583 0.444597
vt 0.846745 0.443074
vt 0.855169 0.425192
vt 0.858319 0.429240
vt 0.860064 0.471620
vt 0.862341 0.466576
vt 0.868642 0.469198
vt 0.873549 0.474849
vt 0.883208 0.477908
vt 0.852555 0.447535
vt 0.847431 0.453365
vt 0.880203 0.392691
vt 0.882301 0.397379
vt 0.891978 0.437165
vt 0.899679 0.441735
vt 0.879336 0.430128
vt 0.884472 0.433561
vt 0.950267 0.365787
vt 0.943189 0.359100
vt 0.940709 0.355389
vt 0.961147 0.366488
vt 0.278985 0.462404
vt 0.342946 0.490986
vt 0.316467 0.534891
vt 0.253203 0.523221
vt 0.306073 0.604829
vt 0.220780 0.625443
vt 0.206172 0.597275
vt 0.142693 0.370170
vt 0.184344 0.378707
vt 0.167511 0.425604
vt 0.129373 0.415145
vt 0.227036 0.425802
vt 0.201015 0.492686
vt 0.324040 0.233122
vt 0.255957 0.227686
vt 0.234146 0.151144
vt 0.312544 0.153760
vt 0.168784 0.571627
vt 0.149587 0.558869
vt 0.127650 0.542535
vt 0.434690 0.619562
vt 0.434385 0.643273
vt 0.302413 0.648735
vt 0.096808 0.545047
vt 0.350189 0.365535
vt 0.417277 0.375063
vt 0.400444 0.466404
vt 0.245447 0.328052
vt 0.298994 0.347300
vt 0.149321 0.304770
vt 0.198646 0.311750
vt 0.361668 0.222065
vt 0.377586 0.268943
vt 0.319933 0.288811
vt 0.169682 0.190067
vt 0.179257 0.194147
vt 0.155335 0.232641
vt 0.254298 0.284808
vt 0.509968 0.161442
vt 0.520636 0.189616
vt 0.462705 0.608921
vt 0.458277 0.626164
vt 0.440226 0.603313
vt 0.462714 0.573365
vt 0.452293 0.585797
vt 0.555887 0.186842
vt 0.557563 0.210789
vt 0.526760 0.212342
vt 0.347747 0.096249
vt 0.502279 0.107766
vt 0.500227 0.139996
vt 0.344509 0.153424
vt 0.432608 0.309080
vt 0.173125 0.659663
vt 0.181816 0.669715
vt 0.149478 0.682685
vt 0.150572 0.655419
vt 0.144553 0.569878
vt 0.139059 0.656020
vt 0.117478 0.662143
vt 0.094421 0.567799
vt 0.204400 0.244760
vt 0.137720 0.561637
vt 0.084452 0.655309
vt 0.056192 0.642139
vt 0.081211 0.632552
vt 0.217227 0.214554
vt 0.081508 0.662516
vt 0.049388 0.668272
vt 0.057319 0.666260
vt 0.069019 0.681149
vt 0.099675 0.684919
vt 0.058774 0.686229
vt 0.094191 0.656177
vt 0.097818 0.643521
vt 0.190654 0.175016
vt 0.134711 0.679710
vt 0.190081 0.162973
vt 0.180826 0.163119
vt 0.186507 0.159071
vt 0.176959 0.169624
vt 0.167446 0.173858
vt 0.145037 0.140837
vt 0.151974 0.135068
vt 0.158876 0.130291
vt 0.163434 0.126045
vt 0.083127 0.072395
vt 0.072296 0.074618
vt 0.091210 0.060606
vt 0.089255 0.064667
s 0
usemtl Material.001
f 16/1/1 2/2/1 4/3/1 17/4/1
f 11/5/2 4/3/2 7/6/2 12/7/2
f 20/8/3 14/9/3 6/10/3 18/11/3
f 48/12/4 46/13/4 2/2/4 16/1/4
f 1/14/5 59/15/5 58/16/5 45/17/5
f 4/3/6 2/2/6 8/18/6 7/6/6
f 46/13/7 6/10/7 9/19/7 47/20/7
f 11/5/8 19/21/8 29/22/8 26/23/8
f 6/10/9 14/9/9 15/24/9 9/19/9
f 39/25/10 17/4/10 19/26/10 41/27/10
f 51/28/11 48/12/11 16/1/11 38/29/11
f 42/30/12 20/8/12 18/11/12 40/31/12
f 38/29/13 16/1/13 17/4/13 39/25/13
f 1/14/14 25/32/14 21/33/14 3/34/14
f 13/35/15 24/36/15 65/37/15
f 45/17/16 49/38/16 25/32/16 1/14/16
f 3/34/17 21/33/17 30/39/17 31/40/17
f 28/41/18 27/42/18 26/23/18 29/43/18
f 19/26/19 17/4/19 28/44/19 29/45/19
f 4/3/20 11/5/20 26/23/20 27/42/20
f 17/4/21 4/3/21 27/42/21 28/44/21
f 31/46/22 30/39/22 33/47/22 32/48/22
f 23/49/23 10/50/23 32/51/23 33/52/23
f 10/50/24 3/34/24 31/40/24 32/51/24
f 21/33/25 23/53/25 33/47/25 30/39/25
f 34/54/26 35/55/26 60/56/26 36/57/26
f 52/58/27 50/59/27 35/55/27 8/18/27
f 50/59/28 44/60/28 37/61/28
f 25/32/29 38/29/29 39/25/29 21/33/29
f 24/36/30 42/30/30 40/31/30 22/62/30
f 49/38/31 51/28/31 38/29/31 25/32/31
f 21/33/32 39/25/32 41/27/32 23/53/32
f 9/19/33 15/24/33 44/60/33 43/63/33
f 55/64/34 54/65/34 53/66/34
f 8/18/35 47/20/35 52/58/35
f 7/6/36 8/18/36 35/55/36 34/54/36
f 22/62/37 40/31/37 51/28/37 49/38/37
f 5/67/38 22/62/38 49/38/38 45/17/38
f 40/31/39 18/11/39 48/12/39 51/28/39
f 2/2/40 46/13/40 47/20/40 8/18/40
f 18/11/41 6/10/41 46/13/41 48/12/41
f 56/68/42 55/64/42 53/66/42
f 54/69/43 57/70/43 53/66/43
f 57/70/44 56/68/44 53/66/44
f 47/71/45 9/72/45 56/68/45 57/70/45
f 52/73/46 47/71/46 57/70/46 54/69/46
f 9/72/47 43/74/47 55/64/47 56/68/47
f 43/74/48 52/75/48 54/65/48 55/64/48
f 12/7/49 7/6/49 34/54/49 36/57/49
f 45/17/50 58/16/50 63/76/50 5/67/50
f 59/15/51 1/14/51 3/34/51 10/50/51
f 60/56/52 35/55/52 50/59/52 61/77/52
f 61/77/53 50/59/53 37/61/53
f 66/78/54 64/79/54 69/80/54 72/81/54
f 5/67/55 63/76/55 65/37/55
f 63/76/56 58/16/56 62/82/56
f 63/76/57 62/82/57 66/83/57 67/84/57
f 65/37/58 24/36/58 22/62/58 5/67/58
f 65/37/59 63/76/59 67/84/59 68/85/59
f 13/35/60 65/37/60 68/85/60 64/86/60
f 62/87/54 13/88/54 64/79/54 66/78/54
f 72/81/54 69/80/54 73/89/54 76/90/54
f 64/86/61 68/85/61 70/91/61 69/92/61
f 67/84/62 66/83/62 72/93/62 71/94/62
f 68/85/63 67/84/63 71/94/63 70/91/63
f 74/95/64 75/96/64 76/97/64 73/98/64
f 69/92/65 70/91/65 74/95/65 73/98/65
f 70/91/66 71/94/66 75/96/66 74/95/66
f 71/94/67 72/93/67 76/97/67 75/96/67
f 43/63/68 44/60/68 50/59/68 52/58/68
f 86/99/69 87/100/69 80/101/69 78/102/69
f 11/103/70 12/104/70 83/105/70 80/101/70
f 20/106/71 88/107/71 82/108/71 14/109/71
f 109/110/72 86/99/72 78/102/72 107/111/72
f 77/112/73 106/113/73 58/114/73 59/115/73
f 80/101/74 83/105/74 84/116/74 78/102/74
f 107/111/75 108/117/75 85/118/75 82/108/75
f 11/103/76 92/119/76 95/120/76 19/121/76
f 82/108/77 85/118/77 15/122/77 14/109/77
f 103/123/78 41/124/78 19/125/78 87/100/78
f 112/126/79 102/127/79 86/99/79 109/110/79
f 42/128/80 104/129/80 88/107/80 20/106/80
f 102/127/81 103/123/81 87/100/81 86/99/81
f 77/112/82 79/130/82 89/131/82 91/132/82
f 13/133/83 120/134/83 24/135/83
f 106/113/84 77/112/84 91/132/84 110/136/84
f 79/130/85 97/137/85 96/138/85 89/131/85
f 94/139/86 95/140/86 92/119/86 93/141/86
f 19/125/87 95/142/87 94/143/87 87/100/87
f 80/101/88 93/141/88 92/119/88 11/103/88
f 87/100/89 94/143/89 93/141/89 80/101/89
f 97/144/90 98/145/90 99/146/90 96/138/90
f 23/147/91 99/148/91 98/149/91 10/150/91
f 10/150/92 98/149/92 97/137/92 79/130/92
f 89/131/93 96/138/93 99/146/93 23/151/93
f 100/152/94 36/153/94 60/154/94 101/155/94
f 113/156/95 84/116/95 101/155/95 111/157/95
f 111/157/96 37/158/96 44/159/96
f 91/132/97 89/131/97 103/123/97 102/127/97
f 24/135/98 90/160/98 104/129/98 42/128/98
f 110/136/99 91/132/99 102/127/99 112/126/99
f 89/131/100 23/151/100 41/124/100 103/123/100
f 85/118/101 105/161/101 44/159/101 15/122/101
f 116/162/102 114/163/102 115/164/102
f 84/116/103 113/156/103 108/117/103
f 83/105/104 100/152/104 101/155/104 84/116/104
f 90/160/105 110/136/105 112/126/105 104/129/105
f 81/165/106 106/113/106 110/136/106 90/160/106
f 104/129/107 112/126/107 109/110/107 88/107/107
f 78/102/108 84/116/108 108/117/108 107/111/108
f 88/107/109 109/110/109 107/111/109 82/108/109
f 117/166/110 114/163/110 116/162/110
f 115/167/111 114/163/111 118/168/111
f 118/168/112 114/163/112 117/166/112
f 108/169/113 118/168/113 117/166/113 85/170/113
f 113/171/114 115/167/114 118/168/114 108/169/114
f 85/170/115 117/166/115 116/162/115 105/172/115
f 105/172/116 116/162/116 115/164/116 113/173/116
f 12/104/117 36/153/117 100/152/117 83/105/117
f 106/113/118 81/165/118 119/174/118 58/114/118
f 59/115/119 10/150/119 79/130/119 77/112/119
f 60/154/120 61/175/120 111/157/120 101/155/120
f 61/175/121 37/158/121 111/157/121
f 81/165/122 120/134/122 119/174/122
f 119/174/123 62/176/123 58/114/123
f 119/174/124 121/177/124 66/178/124 62/176/124
f 120/134/125 81/165/125 90/160/125 24/135/125
f 120/134/126 122/179/126 121/177/126 119/174/126
f 13/133/127 64/180/127 122/179/127 120/134/127
f 64/180/128 69/181/128 123/182/128 122/179/128
f 121/177/129 124/183/129 72/184/129 66/178/129
f 122/179/130 123/182/130 124/183/130 121/177/130
f 125/185/131 73/186/131 76/187/131 126/188/131
f 69/181/132 73/186/132 125/185/132 123/182/132
f 123/182/133 125/185/133 126/188/133 124/183/133
f 124/183/134 126/188/134 76/187/134 72/184/134
f 105/161/135 113/156/135 111/157/135 44/159/135
